




<svg id="service_automation" xmlns="http://www.w3.org/2000/svg" height="100" viewBox="0 0 177.4 184">
                              <g id="automation" transform="translate(-65.3 -49.8)">
                                <g id="XMLID_75_">
                                  <g id="XMLID_85_">
                                    <g id="gearanim">
                                        
                                      <path id="XMLID_100_" d="M239.8,129.8v7.8L218,140.9a1.49,1.49,0,0,0-1.2,1.2,62.754,62.754,0,0,1-3.3,12.2,1.534,1.534,0,0,0,.4,1.7l17.2,13.7-4.7,8.2-20.5-8.1a1.534,1.534,0,0,0-1.7.4,58.242,58.242,0,0,1-9,8.9,1.388,1.388,0,0,0-.4,1.7l8.1,20.5-8.2,4.7L181,188.8a1.574,1.574,0,0,0-1.7-.5,62.754,62.754,0,0,1-12.2,3.3,1.49,1.49,0,0,0-1.2,1.2l-3.3,21.8h-9.4l-3.3-21.8a1.49,1.49,0,0,0-1.2-1.2,51.212,51.212,0,0,1-12.2-3.3,1.574,1.574,0,0,0-1.7.5L121.1,206l-8.2-4.7,8.1-20.5a1.534,1.534,0,0,0-.4-1.7,58.242,58.242,0,0,1-8.9-9,1.388,1.388,0,0,0-1.7-.4l-20.5,8.1-4.7-8.2L102,156a1.388,1.388,0,0,0,.4-1.7,62.755,62.755,0,0,1-3.3-12.2,1.49,1.49,0,0,0-1.2-1.2l-21.8-3.3v-7.8l21.8-3.2a1.49,1.49,0,0,0,1.2-1.2,65.721,65.721,0,0,1,3.3-12.3,1.377,1.377,0,0,0-.5-1.6L84.8,97.7l4.7-8.2L110,97.6a1.731,1.731,0,0,0,1.7-.4,62.387,62.387,0,0,1,8.9-8.9,1.388,1.388,0,0,0,.4-1.7l-8-20.5,8.2-4.7,13.7,17.2a1.388,1.388,0,0,0,1.7.4,64.734,64.734,0,0,1,12.2-3.3,1.49,1.49,0,0,0,1.2-1.2l3.3-21.8h9.4L166,74.5a1.49,1.49,0,0,0,1.2,1.2A62.754,62.754,0,0,1,179.4,79a1.534,1.534,0,0,0,1.7-.4l13.7-17.2,8.2,4.7-8.1,20.5a1.534,1.534,0,0,0,.4,1.7,58.242,58.242,0,0,1,9,8.9,1.388,1.388,0,0,0,1.7.4l20.5-8.1,4.7,8.2L214,111.4a1.281,1.281,0,0,0-.4,1.6,61.847,61.847,0,0,1,3.3,12.3,1.49,1.49,0,0,0,1.2,1.2Z" fill="#CCFFD7"/>
                                      <path id="XMLID_79_" d="M181.1,188.9l13.7,17.2,8.2-4.7-8.1-20.5a1.534,1.534,0,0,1,.4-1.7,58.243,58.243,0,0,0,9-8.9,1.388,1.388,0,0,1,1.7-.4l20.5,8.1,4.7-8.2L213.9,156a1.388,1.388,0,0,1-.4-1.7,62.754,62.754,0,0,0,3.3-12.2,1.49,1.49,0,0,1,1.2-1.2l21.8-3.3v-7.8L218,126.5a1.49,1.49,0,0,1-1.2-1.2,65.721,65.721,0,0,0-3.3-12.3,1.344,1.344,0,0,1,.4-1.6l17.2-13.7-4.7-8.2-20.5,8.1a1.731,1.731,0,0,1-1.7-.4,58.242,58.242,0,0,0-9-8.9,1.388,1.388,0,0,1-.4-1.7l8.1-20.5-8.2-4.7L181,78.6a1.388,1.388,0,0,1-1.7.4,64.734,64.734,0,0,0-12.2-3.3,1.49,1.49,0,0,1-1.2-1.2l-3.3-21.8h-9.4L150,74.5a1.49,1.49,0,0,1-1.2,1.2A56.393,56.393,0,0,0,136.6,79a1.534,1.534,0,0,1-1.7-.4L121.2,61.4,113,66.1l8.1,20.5a1.731,1.731,0,0,1-.4,1.7,53.528,53.528,0,0,0-8.9,8.9,1.388,1.388,0,0,1-1.7.4L89.6,89.5l-4.7,8.2,17.2,13.7a1.47,1.47,0,0,1,.5,1.6,61.847,61.847,0,0,0-3.3,12.3,1.49,1.49,0,0,1-1.2,1.2l-21.8,3.2v7.8l21.8,3.3a1.49,1.49,0,0,1,1.2,1.2,62.754,62.754,0,0,0,3.3,12.2,1.731,1.731,0,0,1-.4,1.7L85,169.6l4.7,8.2,20.5-8.1a1.534,1.534,0,0,1,1.7.4,58.242,58.242,0,0,0,8.9,9,1.388,1.388,0,0,1,.4,1.7l-8.1,20.5,8.2,4.7L135,188.8a1.574,1.574,0,0,1,1.7-.5,64.733,64.733,0,0,0,12.2,3.3,1.49,1.49,0,0,1,1.2,1.2l3.3,21.8h9.4l3.3-21.8a1.49,1.49,0,0,1,1.2-1.2,51.212,51.212,0,0,0,12.2-3.3A1.739,1.739,0,0,1,181.1,188.9Zm-1.7-113,13.8-17.4a1.417,1.417,0,0,1,1.9-.3l10.4,6a1.443,1.443,0,0,1,.6,1.8L198,86.6a65.5,65.5,0,0,1,7.9,7.9l20.7-8.1a1.443,1.443,0,0,1,1.8.6l6,10.4a1.533,1.533,0,0,1-.3,1.9L216.6,113a66.141,66.141,0,0,1,2.9,10.8l22,3.3a1.4,1.4,0,0,1,1.2,1.4v10.3a1.4,1.4,0,0,1-1.2,1.4l-22,3.3a57.4,57.4,0,0,1-2.9,10.8L234,168.1a1.384,1.384,0,0,1,.3,1.9l-6,10.3a1.443,1.443,0,0,1-1.8.6l-20.7-8.1a58.973,58.973,0,0,1-7.9,7.9l8.1,20.7a1.443,1.443,0,0,1-.6,1.8l-10.4,6a1.533,1.533,0,0,1-1.9-.3l-13.8-17.4a66.141,66.141,0,0,1-10.8,2.9l-3.3,21.9a1.4,1.4,0,0,1-1.4,1.2H152a1.4,1.4,0,0,1-1.4-1.2l-3.3-21.9a57.4,57.4,0,0,1-10.8-2.9l-13.8,17.4a1.4,1.4,0,0,1-1.9.3l-10.4-6a1.443,1.443,0,0,1-.6-1.8l8.1-20.7a65.5,65.5,0,0,1-7.9-7.9L89.4,181a1.443,1.443,0,0,1-1.8-.6l-6-10.3a1.533,1.533,0,0,1,.3-1.9l17.4-13.8a66.142,66.142,0,0,1-2.9-10.8l-22-3.3a1.4,1.4,0,0,1-1.2-1.4V128.6a1.4,1.4,0,0,1,1.2-1.4l22-3.3a57.4,57.4,0,0,1,2.9-10.8L82,99.2a1.4,1.4,0,0,1-.3-1.9l6-10.4a1.443,1.443,0,0,1,1.8-.6l20.7,8.1a58.973,58.973,0,0,1,7.9-7.9L109.8,66a1.443,1.443,0,0,1,.6-1.8l10.4-6a1.533,1.533,0,0,1,1.9.3l13.8,17.4A66.142,66.142,0,0,1,147.3,73l3.3-22a1.4,1.4,0,0,1,1.4-1.2h11.9a1.4,1.4,0,0,1,1.4,1.2l3.3,22A66.142,66.142,0,0,1,179.4,75.9Z" fill="#CCFFD7"/>
                                    </g>
                                  </g>
                                </g>
                                <g id="XMLID_76_">
                                  <g id="XMLID_77_">
                                    <g id="XMLID_98_">
                                      <path id="XMLID_99_" d="M156,225H144a1.4,1.4,0,0,1-1.4-1.2l-3.3-22a57.4,57.4,0,0,1-10.8-2.9l-13.8,17.4a1.508,1.508,0,0,1-1.9.4l-10.3-6a1.443,1.443,0,0,1-.6-1.8l8.1-20.7a65.5,65.5,0,0,1-7.9-7.9l-20.7,8.1a1.443,1.443,0,0,1-1.8-.6l-6-10.3a1.443,1.443,0,0,1,.4-1.9l17.4-13.8A66.142,66.142,0,0,1,88.5,151l-22-3.3a1.4,1.4,0,0,1-1.2-1.4V136a1.4,1.4,0,0,1,1.2-1.4l22-3.3a57.4,57.4,0,0,1,2.9-10.8L74,106.7a1.508,1.508,0,0,1-.4-1.9l6-10.3a1.443,1.443,0,0,1,1.8-.6l20.7,8.1a58.973,58.973,0,0,1,7.9-7.9l-8.1-20.7a1.443,1.443,0,0,1,.6-1.8l10.3-6a1.443,1.443,0,0,1,1.9.4l13.8,17.4a66.142,66.142,0,0,1,10.8-2.9l3.3-22a1.4,1.4,0,0,1,1.4-1.2h12a1.4,1.4,0,0,1,1.4,1.2l3.3,22a57.4,57.4,0,0,1,10.8,2.9L185.3,66a1.508,1.508,0,0,1,1.9-.4l10.3,6a1.443,1.443,0,0,1,.6,1.8L190,94.1a65.5,65.5,0,0,1,7.9,7.9l20.7-8.1a1.443,1.443,0,0,1,1.8.6l6,10.3a1.443,1.443,0,0,1-.4,1.9l-17.4,13.8a66.141,66.141,0,0,1,2.9,10.8l22,3.3a1.4,1.4,0,0,1,1.2,1.4v10.3a1.4,1.4,0,0,1-1.2,1.4l-22,3.3a57.4,57.4,0,0,1-2.9,10.8L226,175.6a1.508,1.508,0,0,1,.4,1.9l-6,10.3a1.443,1.443,0,0,1-1.8.6l-20.7-8.1a65.5,65.5,0,0,1-7.9,7.9l8.1,20.7a1.443,1.443,0,0,1-.6,1.8l-10.3,6a1.443,1.443,0,0,1-1.9-.4L171.5,199a66.141,66.141,0,0,1-10.8,2.9l-3.3,22A1.41,1.41,0,0,1,156,225Zm-10.7-2.9h9.4l3.3-21.8a1.49,1.49,0,0,1,1.2-1.2,51.212,51.212,0,0,0,12.2-3.3,1.731,1.731,0,0,1,1.7.4l13.7,17.2,8.2-4.7-8.1-20.5a1.534,1.534,0,0,1,.4-1.7,68.838,68.838,0,0,0,9-8.9,1.388,1.388,0,0,1,1.7-.4l20.5,8.1,4.7-8.2L206,163.4a1.388,1.388,0,0,1-.4-1.7,62.754,62.754,0,0,0,3.3-12.2,1.49,1.49,0,0,1,1.2-1.2l21.8-3.3v-7.8L210,134a1.49,1.49,0,0,1-1.2-1.2,62.754,62.754,0,0,0-3.3-12.2,1.574,1.574,0,0,1,.5-1.7l17.2-13.7L218.5,97,198,105a1.534,1.534,0,0,1-1.7-.4,63.8,63.8,0,0,0-9-9,1.388,1.388,0,0,1-.4-1.7L195,73.4l-8.2-4.7L173.1,86a1.388,1.388,0,0,1-1.7.4,64.734,64.734,0,0,0-12.2-3.3,1.49,1.49,0,0,1-1.2-1.2l-3.3-21.8h-9.4L142,82a1.49,1.49,0,0,1-1.2,1.2,51.212,51.212,0,0,0-12.2,3.3,1.534,1.534,0,0,1-1.7-.4L113.2,68.9,105,73.6l8.1,20.5a1.534,1.534,0,0,1-.4,1.7,50.566,50.566,0,0,0-8.9,9,1.388,1.388,0,0,1-1.7.4L81.5,97l-4.7,8.2L94,118.9a1.388,1.388,0,0,1,.4,1.7,62.755,62.755,0,0,0-3.3,12.2,1.49,1.49,0,0,1-1.2,1.2l-21.8,3.3v7.8l21.8,3.3a1.49,1.49,0,0,1,1.2,1.2,62.754,62.754,0,0,0,3.3,12.2,1.731,1.731,0,0,1-.4,1.7L76.8,177.2l4.7,8.2,20.5-8.1a1.534,1.534,0,0,1,1.7.4,63.034,63.034,0,0,0,8.9,9,1.388,1.388,0,0,1,.4,1.7l-8.1,20.5,8.2,4.7,13.7-17.2a1.388,1.388,0,0,1,1.7-.4,62.754,62.754,0,0,0,12.2,3.3,1.49,1.49,0,0,1,1.2,1.2Z" fill="#34D559"/>
                                    </g>
                                    <g id="XMLID_94_">
                                      <path id="XMLID_95_" d="M150,184a42.9,42.9,0,1,1,42.9-42.9A42.87,42.87,0,0,1,150,184Zm0-82.8a40,40,0,1,0,40,40A39.968,39.968,0,0,0,150,101.2Z" fill="#34D559"/>
                                    </g>
                                    <g id="XMLID_90_">
                                      <path id="XMLID_91_" d="M150,184c-12.7,0-22.6-18.8-22.6-42.9,0-24,9.9-42.9,22.6-42.9s22.7,18.8,22.7,42.9S162.7,184,150,184Zm0-82.8c-10.9,0-19.7,17.9-19.7,40,0,22,8.9,40,19.7,40,10.7,0,19.8-18.3,19.8-40C169.7,119.5,160.7,101.2,150,101.2Z" fill="#34D559"/>
                                    </g>
                                    <g id="XMLID_88_">
                                      <path id="XMLID_68_" d="M191.4,142.6H108.6a1.5,1.5,0,1,1,0-3h82.8a1.473,1.473,0,0,1,1.5,1.5A1.538,1.538,0,0,1,191.4,142.6Z" fill="#34D559"/>
                                    </g>
                                    <g id="XMLID_86_">
                                      <path id="XMLID_67_" d="M150,184a1.473,1.473,0,0,1-1.5-1.5V99.7a1.5,1.5,0,0,1,3,0v82.8A1.536,1.536,0,0,1,150,184Z" fill="#34D559"/>
                                    </g>
                                    <g id="XMLID_84_">
                                      <path id="XMLID_66_" d="M150.1,124a106.532,106.532,0,0,1-34.1-5.7,1.423,1.423,0,0,1,.9-2.7,101.477,101.477,0,0,0,66.2,0,1.423,1.423,0,0,1,.9,2.7A104.891,104.891,0,0,1,150.1,124Z" fill="#34D559"/>
                                    </g>
                                    <g id="XMLID_82_">
                                      <path id="XMLID_65_" d="M116.4,166a1.5,1.5,0,0,1-1.4-1,1.378,1.378,0,0,1,.9-1.8,104.252,104.252,0,0,1,68,0,1.423,1.423,0,0,1-.9,2.7,101.478,101.478,0,0,0-66.2,0C116.7,166,116.6,166,116.4,166Z" fill="#34D559"/>
                                    </g>
                                    <g id="XMLID_80_">
                                      <path id="XMLID_62_" d="M230.3,225H69.7a1.5,1.5,0,0,1,0-3H230.4a1.473,1.473,0,0,1,1.5,1.5A1.624,1.624,0,0,1,230.3,225Z" fill="#34D559"/>
                                    </g>
                                    <g id="XMLID_78_">
                                      <path id="XMLID_1_" d="M210.2,233.8H89.8a1.473,1.473,0,0,1-1.5-1.5,1.417,1.417,0,0,1,1.5-1.5H210.3a1.473,1.473,0,0,1,1.5,1.5A1.558,1.558,0,0,1,210.2,233.8Z" fill="#34D559"/>
                                    </g>
                                  </g>
                                </g>
                              </g>
                            </svg>



