                          <svg  data-anim="totop" version="1.1" id="service_develop" height="100" xmlns="http://www.w3.org/2000/svg" xmlns:xlink="http://www.w3.org/1999/xlink" x="0px"
                          y="0px" viewBox="65 -42 146 100" enable-background="new 65 -42 146 100" xml:space="preserve">
                       <g id="develop" transform="translate(-63.5 -74.9)">
                         <path id="XMLID_1_" fill="#CCFFD7" d="M244.6,83.7c13,0,23.6,10.5,23.6,23.6s-10.5,23.6-23.6,23.6S221,120.4,221,107.3
                           S231.6,83.7,244.6,83.7L244.6,83.7z"/>
                         <path id="XMLID_54_" fill="#CCFFD7" d="M241.2,110.3h-99.6c-0.7,0-1.3-0.6-1.3-1.3V34.1c0-0.7,0.6-1.3,1.3-1.3h99.6
                           c0.7,0,1.3,0.6,1.3,1.3V109C242.5,109.7,241.9,110.2,241.2,110.3z"/>
                         <g id="XMLID_2_" transform="translate(63.5 83.341)">
                           <g id="XMLID_3_">
                             <g id="XMLID_52_" transform="translate(157.348 91.167)">
                               <path id="XMLID_53_" fill="#34D559" d="M20.1-41.7c-11.3,0-21-7.9-23.3-19c-0.1-0.6,0.3-1.1,0.8-1.2c0.6-0.1,1.1,0.3,1.2,0.8
                                 l0,0c2.4,11.7,13.9,19.3,25.6,16.9s19.3-13.9,16.9-25.6c-2.1-10.1-10.9-17.3-21.2-17.3c-1.6,0-3.2,0.2-4.7,0.5
                                 c-0.6,0.1-1.2-0.2-1.3-0.8c-0.1-0.6,0.2-1.2,0.8-1.3l0,0c1.7-0.4,3.4-0.5,5.2-0.5C33.2-89.3,44-78.7,44-65.5
                                 S33.5-41.6,20.3-41.6C20.3-41.7,20.2-41.7,20.1-41.7z"/>
                             </g>
                             <g id="XMLID_50_" transform="translate(181.801 91.167)">
                               <path id="XMLID_51_" fill="#34D559" d="M-4.3-41.7c-5.1,0-9.4-7.9-10.5-19.1c-0.1-0.6,0.4-1.1,1-1.2c0.6,0,1.1,0.4,1.2,1
                                 c0.8,9.8,4.4,17.1,8.3,17.1c4.1,0,8.5-8.7,8.5-21.7s-4.4-21.7-8.5-21.7c-1.8,0-3.1,1.5-4.1,2.8c-0.3,0.5-1,0.6-1.5,0.3
                                 s-0.6-1-0.3-1.5l0,0c1.7-2.5,3.7-3.8,5.8-3.8C1.5-89.5,6.2-79,6.2-65.7C6.3-52.2,1.6-41.7-4.3-41.7z"/>
                             </g>
                             <g id="XMLID_46_">
                               <path id="XMLID_47_" fill="#34D559" d="M172.5,31.4H72.4c-0.6,0-1.1-0.5-1.1-1.1l0,0V-45c0-0.6,0.5-1.1,1.1-1.1l0,0h100.1
                                 c0.6,0,1.1,0.5,1.1,1.1l0,0v75.3C173.6,30.9,173.2,31.3,172.5,31.4C172.6,31.4,172.6,31.4,172.5,31.4z M73.5,29.2h98V-44h-98
                                 V29.2z"/>
                             </g>
                             <g id="XMLID_24_" transform="translate(40.778 111.556)">
                               <path id="XMLID_25_" fill="#34D559" d="M110.3-96.8H53.2c-0.6,0-1.1-0.5-1.1-1.1s0.5-1.1,1.1-1.1h57.1c0.6,0,1.1,0.5,1.1,1.1
                                 C111.3-97.3,110.9-96.8,110.3-96.8L110.3-96.8z"/>
                             </g>
                             <g id="XMLID_22_" transform="translate(0 32.077)">
                               <path id="XMLID_23_" fill="#34D559" d="M172.5-59.1H72.4c-0.6,0-1.1-0.5-1.1-1.1s0.5-1.1,1.1-1.1h100.1c0.6,0,1.1,0.5,1.1,1.1
                                 S173.2-59.1,172.5-59.1L172.5-59.1z"/>
                             </g>
                             <g id="XMLID_18_" transform="translate(13.896 10.389)">
                               <path id="XMLID_19_" fill="#34D559" d="M68.7-43.2c-2.1,0-3.9-1.7-3.9-3.9l0,0c0-2.1,1.8-3.9,3.9-3.9s3.9,1.7,3.9,3.9l0,0
                                 C72.6-45,70.8-43.3,68.7-43.2z M68.7-48.9c-1,0-1.8,0.8-1.8,1.8s0.8,1.8,1.8,1.8s1.8-0.8,1.8-1.8C70.4-48.1,69.7-48.9,68.7-48.9
                                 L68.7-48.9z"/>
                             </g>
                             <g id="XMLID_14_" transform="translate(37.402 10.389)">
                               <path id="XMLID_15_" fill="#34D559" d="M57.5-43.2c-2.1,0-3.9-1.7-3.9-3.9l0,0c0-2.1,1.8-3.9,3.9-3.9c2.1,0,3.9,1.7,3.9,3.9l0,0
                                 C61.4-45,59.7-43.3,57.5-43.2z M57.5-48.9c-1,0-1.8,0.8-1.8,1.8s0.8,1.8,1.8,1.8s1.8-0.8,1.8-1.8l0,0
                                 C59.3-48.1,58.5-48.9,57.5-48.9L57.5-48.9z"/>
                             </g>
                             <g id="XMLID_12_" transform="translate(84.543 15.714)">
                               <path id="XMLID_13_" fill="#34D559" d="M88-51.4H32.4c-0.6,0-1.1-0.5-1.1-1.1s0.5-1.1,1.1-1.1H88c0.6,0,1.1,0.5,1.1,1.1
                                 S88.6-51.4,88-51.4L88-51.4z"/>
                             </g>
                             <g id="XMLID_10_" transform="translate(199.605 91.037)">
                               <path id="XMLID_11_" fill="#34D559" d="M-22.1-41.6c-0.6,0-1.1-0.5-1.1-1.1l0,0v-45.5c0-0.6,0.5-1.1,1.1-1.1s1.1,0.5,1.1,1.1
                                 v45.5C-21-42.1-21.5-41.6-22.1-41.6L-22.1-41.6z"/>
                             </g>
                             <g id="XMLID_8_" transform="translate(190.255 134.282)">
                               <path id="XMLID_9_" fill="#34D559" d="M10-107.6h-27.7c-0.6,0-1.1-0.5-1.1-1.1s0.5-1.1,1.1-1.1H10c0.6,0,1.1,0.5,1.1,1.1
                                 C11-108.1,10.6-107.6,10-107.6z"/>
                             </g>
                             <g id="XMLID_6_" transform="translate(190.371 109.932)">
                               <path id="XMLID_7_" fill="#34D559" d="M-13.2-93.3c-1.6,0-3.1-0.1-4.6-0.2c-0.6-0.1-1-0.6-1-1.2c0.1-0.6,0.6-1,1.2-1
                                 c7.9,0.5,15.8-0.4,23.4-2.6c0.6-0.2,1.1,0.2,1.3,0.8s-0.2,1.1-0.8,1.3C-0.1-94.3-6.7-93.3-13.2-93.3z"/>
                             </g>
                             <g id="XMLID_4_" transform="translate(163.908 150.158)">
                               <path id="XMLID_5_" fill="#34D559" d="M-5.2-112.2c-0.5,0-0.9-0.3-1-0.8c-0.2-0.6,0.1-1.2,0.7-1.4c12.4-3.9,24.9-3.9,38.1,0
                                 c0.6,0.2,0.9,0.7,0.8,1.3s-0.7,0.9-1.3,0.8c-12.9-3.8-24.9-3.8-36.9,0C-5-112.3-5.1-112.2-5.2-112.2z"/>
                             </g>
                           </g>
                         </g>
                       </g>
                       <rect class="rect_bar" x="94.9" y="4.1" fill="none" stroke="#34D559" stroke-width="2" stroke-miterlimit="10" width="6.2" height="14.1"/>
                       <rect class="rect_bar" x="142.8" y="2.4" fill="none" stroke="#34D559" stroke-width="2" stroke-miterlimit="10" width="6.2" height="15.9"/>
                       <rect class="rect_bar" x="119.4" y="-1.9" fill="none" stroke="#34D559" stroke-width="2" stroke-miterlimit="10" width="6.2" height="20.1"/>
                       <rect class="rect_bar" x="131.3" y="-4.3" fill="none" stroke="#34D559" stroke-width="2" stroke-miterlimit="10" width="6.2" height="22.5"/>
                       <rect class="rect_bar" x="107.3" y="-4.3" fill="none" stroke="#34D559" stroke-width="2" stroke-miterlimit="10" width="6.2" height="22.5"/>
                       </svg>