<?xml version="1.0" encoding="utf-8"?>
<!-- Generator: Adobe Illustrator 19.0.0, SVG Export Plug-In . SVG Version: 6.00 Build 0)  -->
<svg version="1.1" xmlns="http://www.w3.org/2000/svg" xmlns:xlink="http://www.w3.org/1999/xlink" x="0px" y="0px"
	 viewBox="0 0 612 792" enable-background="new 0 0 612 792" xml:space="preserve">
<g id="Layer_1">
</g>
<g id="object">
	<g>
		<g>
			<linearGradient id="SVGID_1_" gradientUnits="userSpaceOnUse" x1="305.5381" y1="558.4006" x2="305.5381" y2="549.0326">
				<stop  offset="0" style="stop-color:#585655"/>
				<stop  offset="0.464" style="stop-color:#585655"/>
				<stop  offset="1" style="stop-color:#151515"/>
			</linearGradient>
			<path fill="url(#SVGID_1_)" d="M22.5,549c19.9,6.2,40.6,9.4,61.5,9.4h221.5h221.5c20.8,0,41.6-3.2,61.5-9.4h-283H22.5z"/>
			<g>
				
					<linearGradient id="SVGID_2_" gradientUnits="userSpaceOnUse" x1="-6092.5469" y1="547.8547" x2="-5856.9277" y2="547.8547" gradientTransform="matrix(-1 0 0 1 -5834.4165 0)">
					<stop  offset="0" style="stop-color:#777777"/>
					<stop  offset="4.144942e-004" style="stop-color:#737373"/>
					<stop  offset="2.826759e-003" style="stop-color:#5F5F5F"/>
					<stop  offset="5.157048e-003" style="stop-color:#515151"/>
					<stop  offset="7.350378e-003" style="stop-color:#494949"/>
					<stop  offset="9.264740e-003" style="stop-color:#464646"/>
					<stop  offset="1.212847e-002" style="stop-color:#484848"/>
					<stop  offset="1.442763e-002" style="stop-color:#4D4D4D"/>
					<stop  offset="1.652472e-002" style="stop-color:#565656"/>
					<stop  offset="1.775940e-002" style="stop-color:#5E5E5E"/>
					<stop  offset="2.534020e-002" style="stop-color:#7D7D7D"/>
					<stop  offset="0.4016" style="stop-color:#838384"/>
					<stop  offset="0.4064" style="stop-color:#838384"/>
					<stop  offset="0.9354" style="stop-color:#6B6B6A"/>
					<stop  offset="0.9478" style="stop-color:#575757"/>
					<stop  offset="0.9645" style="stop-color:#414140"/>
					<stop  offset="0.9731" style="stop-color:#383938"/>
					<stop  offset="0.9776" style="stop-color:#3B3B3B"/>
					<stop  offset="0.9829" style="stop-color:#434343"/>
					<stop  offset="0.9886" style="stop-color:#515150"/>
					<stop  offset="0.9946" style="stop-color:#656565"/>
					<stop  offset="1" style="stop-color:#7D7D7D"/>
				</linearGradient>
				<path fill="url(#SVGID_2_)" d="M22.5,545.7v3.4h228.2c2.2,0,4.5,0.3,6.7,0.8c0.3,0.1,0.5,0.1,0.8,0.2v-4.4H22.5z"/>
				<linearGradient id="SVGID_3_" gradientUnits="userSpaceOnUse" x1="352.9171" y1="547.8547" x2="588.5362" y2="547.8547">
					<stop  offset="0" style="stop-color:#515151"/>
					<stop  offset="1.537906e-003" style="stop-color:#434343"/>
					<stop  offset="3.642717e-003" style="stop-color:#343434"/>
					<stop  offset="5.677816e-003" style="stop-color:#292929"/>
					<stop  offset="7.593072e-003" style="stop-color:#222222"/>
					<stop  offset="9.264740e-003" style="stop-color:#1F2020"/>
					<stop  offset="1.198060e-002" style="stop-color:#212121"/>
					<stop  offset="1.416158e-002" style="stop-color:#262626"/>
					<stop  offset="1.614998e-002" style="stop-color:#2E2F2E"/>
					<stop  offset="1.775940e-002" style="stop-color:#373737"/>
					<stop  offset="2.534020e-002" style="stop-color:#575757"/>
					<stop  offset="0.4016" style="stop-color:#5E5F5F"/>
					<stop  offset="0.4064" style="stop-color:#5E5F5F"/>
					<stop  offset="0.9354" style="stop-color:#454545"/>
					<stop  offset="0.9493" style="stop-color:#323232"/>
					<stop  offset="0.965" style="stop-color:#1E1E1E"/>
					<stop  offset="0.9731" style="stop-color:#141414"/>
					<stop  offset="0.9772" style="stop-color:#171717"/>
					<stop  offset="0.9821" style="stop-color:#202020"/>
					<stop  offset="0.9873" style="stop-color:#2C2D2D"/>
					<stop  offset="0.9929" style="stop-color:#3C3D3C"/>
					<stop  offset="0.9986" style="stop-color:#515151"/>
					<stop  offset="1" style="stop-color:#575757"/>
				</linearGradient>
				<path fill="url(#SVGID_3_)" d="M588.5,545.7v3.4H360.4c-2.2,0-4.5,0.3-6.7,0.8c-0.3,0.1-0.5,0.1-0.8,0.2v-4.4H588.5z"/>
				<linearGradient id="SVGID_4_" gradientUnits="userSpaceOnUse" x1="258.1303" y1="547.9916" x2="352.9171" y2="547.9916">
					<stop  offset="0" style="stop-color:#575757"/>
					<stop  offset="6.122410e-002" style="stop-color:#454545"/>
					<stop  offset="0.5076" style="stop-color:#575757"/>
					<stop  offset="0.9402" style="stop-color:#454545"/>
					<stop  offset="1" style="stop-color:#575757"/>
				</linearGradient>
				<path fill="url(#SVGID_4_)" d="M352.9,545.7v4.4c-1,0.2-2,0.3-3,0.3h-88.9c-1,0-2-0.1-3-0.3v-4.4H352.9z"/>
			</g>
			
				<linearGradient id="SVGID_5_" gradientUnits="userSpaceOnUse" x1="-6092.5469" y1="547.3663" x2="-5856.9277" y2="547.3663" gradientTransform="matrix(-1 0 0 1 -5834.4165 0)">
				<stop  offset="0" style="stop-color:#A8A7A8"/>
				<stop  offset="1.817869e-003" style="stop-color:#838281"/>
				<stop  offset="3.846150e-003" style="stop-color:#676665"/>
				<stop  offset="5.808059e-003" style="stop-color:#545353"/>
				<stop  offset="7.653838e-003" style="stop-color:#4A4949"/>
				<stop  offset="9.264740e-003" style="stop-color:#464646"/>
				<stop  offset="1.151095e-002" style="stop-color:#484848"/>
				<stop  offset="1.331507e-002" style="stop-color:#4E4E4E"/>
				<stop  offset="1.496520e-002" style="stop-color:#585858"/>
				<stop  offset="1.651408e-002" style="stop-color:#666666"/>
				<stop  offset="1.775940e-002" style="stop-color:#767677"/>
				<stop  offset="2.534020e-002" style="stop-color:#6C6A69"/>
				<stop  offset="0.4016" style="stop-color:#6C6A69"/>
				<stop  offset="0.4064" style="stop-color:#6C6A69"/>
				<stop  offset="0.9354" style="stop-color:#8E8D8D"/>
				<stop  offset="0.9426" style="stop-color:#767574"/>
				<stop  offset="0.9571" style="stop-color:#4C4B4B"/>
				<stop  offset="0.9677" style="stop-color:#343434"/>
				<stop  offset="0.9731" style="stop-color:#2B2C2B"/>
				<stop  offset="0.9775" style="stop-color:#2E2E2E"/>
				<stop  offset="0.9826" style="stop-color:#363535"/>
				<stop  offset="0.9882" style="stop-color:#424141"/>
				<stop  offset="0.9941" style="stop-color:#545352"/>
				<stop  offset="1" style="stop-color:#6C6A69"/>
			</linearGradient>
			<path fill="url(#SVGID_5_)" d="M22.5,545.2v3.4h228.2c2.2,0,4.5,0.3,6.7,0.8c0.3,0.1,0.5,0.1,0.8,0.2v-4.4H22.5z"/>
			<linearGradient id="SVGID_6_" gradientUnits="userSpaceOnUse" x1="305.5525" y1="544.4264" x2="305.5525" y2="235.5458">
				<stop  offset="0" style="stop-color:#514F4F"/>
				<stop  offset="8.216142e-002" style="stop-color:#575554"/>
				<stop  offset="0.2091" style="stop-color:#676464"/>
				<stop  offset="0.3641" style="stop-color:#848180"/>
				<stop  offset="0.447" style="stop-color:#979494"/>
				<stop  offset="1" style="stop-color:#7C7979"/>
			</linearGradient>
			<path fill="url(#SVGID_6_)" d="M522.9,235.5H88.2c-7.8,0-14.1,6.3-14.1,14.1v294.8h2V247.6c0-0.6,0-1.2,0.1-1.8
				c0-0.2,0.1-0.4,0.1-0.6c0-0.2,0.1-0.4,0.1-0.6c0.1-0.2,0.1-0.4,0.2-0.6c0.5-1.6,1.3-3.1,2.4-4.3c0.1-0.1,0.3-0.3,0.4-0.4
				c0.1-0.1,0.1-0.1,0.2-0.2c0.6-0.6,1.3-1.2,2-1.6c0.2-0.2,0.5-0.3,0.8-0.4c0.3-0.1,0.5-0.3,0.8-0.4c0,0,0,0,0,0
				c0.2-0.1,0.4-0.2,0.5-0.2c0,0,0,0,0,0c1.4-0.5,2.9-0.8,4.4-0.8L522.9,235.5c2,0,4,0.6,5.7,1.5c0.3,0.1,0.5,0.3,0.8,0.4
				c0.3,0.2,0.6,0.4,0.9,0.7c0,0,0,0,0,0c0.2,0.1,0.3,0.2,0.4,0.4c0,0,0,0,0,0c0.2,0.2,0.4,0.4,0.6,0.6c0.1,0.1,0.1,0.1,0.2,0.2
				c0.1,0.1,0.3,0.3,0.4,0.4c1.8,2.1,2.9,4.9,2.9,7.9v296.8h2V248.8C536.5,241.4,530.4,235.5,522.9,235.5z"/>
			<linearGradient id="SVGID_7_" gradientUnits="userSpaceOnUse" x1="305.5381" y1="249.6499" x2="305.5381" y2="233.5289">
				<stop  offset="0" style="stop-color:#1A1A1A"/>
				<stop  offset="0.2472" style="stop-color:#1C1C1C"/>
				<stop  offset="0.3951" style="stop-color:#222222"/>
				<stop  offset="0.517" style="stop-color:#2A2A2A"/>
				<stop  offset="0.6247" style="stop-color:#363636"/>
				<stop  offset="0.7229" style="stop-color:#464545"/>
				<stop  offset="0.8144" style="stop-color:#5A5958"/>
				<stop  offset="0.9006" style="stop-color:#747373"/>
				<stop  offset="0.9806" style="stop-color:#949494"/>
				<stop  offset="1" style="stop-color:#9F9F9F"/>
			</linearGradient>
			<path fill="url(#SVGID_7_)" d="M74.1,247.6c0-7.8,6.3-14.1,14.1-14.1h434.7c7.8,0,14.1,6.3,14.1,14.1v1.1
				c-0.5-7.4-6.6-13.2-14.1-13.2H88.2c-7.8,0-14.1,6.3-14.1,14.1L74.1,247.6z"/>
			<rect x="76.1" y="534.5" fill="#212121" width="458.8" height="9.9"/>
			<path fill="#010101" d="M534.9,247.6v286.9H76.1V247.6c0-6.6,5.4-12.1,12.1-12.1h434.7C529.5,235.6,534.9,241,534.9,247.6z"/>
			<linearGradient id="SVGID_8_" gradientUnits="userSpaceOnUse" x1="352.9171" y1="547.3663" x2="588.5362" y2="547.3663">
				<stop  offset="0" style="stop-color:#828282"/>
				<stop  offset="1.644317e-004" style="stop-color:#7E7E7E"/>
				<stop  offset="1.822078e-003" style="stop-color:#60605F"/>
				<stop  offset="3.460938e-003" style="stop-color:#484848"/>
				<stop  offset="5.050248e-003" style="stop-color:#373737"/>
				<stop  offset="6.576365e-003" style="stop-color:#2B2B2A"/>
				<stop  offset="8.012179e-003" style="stop-color:#232323"/>
				<stop  offset="9.264740e-003" style="stop-color:#202020"/>
				<stop  offset="1.131026e-002" style="stop-color:#222222"/>
				<stop  offset="1.295296e-002" style="stop-color:#272727"/>
				<stop  offset="1.445577e-002" style="stop-color:#2F2F2F"/>
				<stop  offset="1.587501e-002" style="stop-color:#3A3B3A"/>
				<stop  offset="1.722401e-002" style="stop-color:#494949"/>
				<stop  offset="1.775940e-002" style="stop-color:#505050"/>
				<stop  offset="2.534020e-002" style="stop-color:#6C6A69"/>
				<stop  offset="0.4016" style="stop-color:#6C6A69"/>
				<stop  offset="0.4064" style="stop-color:#6C6A69"/>
				<stop  offset="0.9354" style="stop-color:#686969"/>
				<stop  offset="0.9427" style="stop-color:#555655"/>
				<stop  offset="0.9572" style="stop-color:#343434"/>
				<stop  offset="0.9677" style="stop-color:#1F1F1F"/>
				<stop  offset="0.9731" style="stop-color:#151515"/>
				<stop  offset="0.9768" style="stop-color:#181818"/>
				<stop  offset="0.9811" style="stop-color:#212121"/>
				<stop  offset="0.9858" style="stop-color:#2E2E2E"/>
				<stop  offset="0.9907" style="stop-color:#3F3E3E"/>
				<stop  offset="0.9958" style="stop-color:#555453"/>
				<stop  offset="1" style="stop-color:#6C6A69"/>
			</linearGradient>
			<path fill="url(#SVGID_8_)" d="M588.5,545.2v3.4H360.4c-2.2,0-4.5,0.3-6.7,0.8c-0.3,0.1-0.5,0.1-0.8,0.2v-4.4H588.5z"/>
			<linearGradient id="SVGID_9_" gradientUnits="userSpaceOnUse" x1="258.1303" y1="547.5033" x2="352.9171" y2="547.5033">
				<stop  offset="0" style="stop-color:#838281"/>
				<stop  offset="6.122410e-002" style="stop-color:#6C6A69"/>
				<stop  offset="0.5076" style="stop-color:#838281"/>
				<stop  offset="0.9402" style="stop-color:#6C6A69"/>
				<stop  offset="1" style="stop-color:#838281"/>
			</linearGradient>
			<path fill="url(#SVGID_9_)" d="M352.9,545.2v4.4c-1,0.2-2,0.3-3,0.3h-88.9c-1,0-2-0.1-3-0.3v-4.4H352.9z"/>
			<polygon fill="#151515" points="537,544.4 537,545.2 534.9,545.2 534.9,545.2 76.1,545.2 76.1,545.2 74.1,545.2 74.1,544.4 			
				"/>
		</g>
		<g id="XMLID_6_">
			<defs>
				<rect id="XMLID_2_" x="85.6" y="253.1" width="439.8" height="275.9"/>
			</defs>
			<clipPath id="XMLID_94_">
				<use xlink:href="#XMLID_2_"  overflow="visible"/>
			</clipPath>
			<g transform="matrix(1 0 0 1 0 1.525879e-005)" clip-path="url(#XMLID_94_)">
				
					<image overflow="visible" width="1898" height="909" id="XMLID_3_" xlink:href="laptopmockup.png"  transform="matrix(0.3216 0 0 0.3216 85.6398 249.6499)">
				</image>
			</g>
		</g>
		<defs>
			<filter id="Adobe_OpacityMaskFilter" filterUnits="userSpaceOnUse" x="161.3" y="233.5" width="375.6" height="311.7">
				<feFlood  style="flood-color:white;flood-opacity:1" result="back"/>
				<feBlend  in="SourceGraphic" in2="back" mode="normal"/>
			</filter>
		</defs>
		<mask maskUnits="userSpaceOnUse" x="161.3" y="233.5" width="375.6" height="311.7" id="XMLID_95_">
			<g filter="url(#Adobe_OpacityMaskFilter)">
				<defs>
					<filter id="Adobe_OpacityMaskFilter_1_" filterUnits="userSpaceOnUse" x="161.3" y="233.5" width="375.6" height="311.7">
						<feFlood  style="flood-color:white;flood-opacity:1" result="back"/>
						<feBlend  in="SourceGraphic" in2="back" mode="normal"/>
					</filter>
				</defs>
				<mask maskUnits="userSpaceOnUse" x="161.3" y="233.5" width="375.6" height="311.7" id="XMLID_95_">
					<g filter="url(#Adobe_OpacityMaskFilter_1_)">
					</g>
				</mask>
				<linearGradient id="SVGID_10_" gradientUnits="userSpaceOnUse" x1="349.1487" y1="545.1811" x2="349.1487" y2="233.5294">
					<stop  offset="0.198" style="stop-color:#000000"/>
					<stop  offset="0.4968" style="stop-color:#020202"/>
					<stop  offset="0.6045" style="stop-color:#090909"/>
					<stop  offset="0.6813" style="stop-color:#141414"/>
					<stop  offset="0.7433" style="stop-color:#252525"/>
					<stop  offset="0.7965" style="stop-color:#3B3B3B"/>
					<stop  offset="0.8436" style="stop-color:#575757"/>
					<stop  offset="0.8862" style="stop-color:#777777"/>
					<stop  offset="0.9253" style="stop-color:#9D9D9D"/>
					<stop  offset="0.9618" style="stop-color:#C8C8C8"/>
					<stop  offset="0.9941" style="stop-color:#F6F6F6"/>
					<stop  offset="1" style="stop-color:#FFFFFF"/>
				</linearGradient>
				<path mask="url(#XMLID_95_)" fill="url(#SVGID_10_)" d="M522.9,233.5H473L161.3,545.2h373.6v0h2V247.6
					C537,239.8,530.7,233.5,522.9,233.5z M531.4,239.1C531.4,239.1,531.4,239.1,531.4,239.1C531.4,239.1,531.4,239.1,531.4,239.1
					L531.4,239.1z"/>
			</g>
		</mask>
		<linearGradient id="XMLID_96_" gradientUnits="userSpaceOnUse" x1="349.1487" y1="545.1811" x2="349.1487" y2="233.5294">
			<stop  offset="0.198" style="stop-color:#FFFFFF"/>
			<stop  offset="0.8866" style="stop-color:#FFFFFF"/>
			<stop  offset="1" style="stop-color:#FFFFFF"/>
		</linearGradient>
		<path id="XMLID_1_" display="none" opacity="0.2" fill="url(#XMLID_96_)" d="M522.9,233.5H473L161.3,545.2h373.6v0h2V247.6
			C537,239.8,530.7,233.5,522.9,233.5z M531.4,239.1C531.4,239.1,531.4,239.1,531.4,239.1C531.4,239.1,531.4,239.1,531.4,239.1
			L531.4,239.1z"/>
	</g>
	<g id="XMLID_8_" display="none">
		<g id="XMLID_13_" display="inline">
			<g id="XMLID_30_">
				<g id="XMLID_32_">
					<g id="XMLID_83_">
						<path id="XMLID_89_" fill="#C8C7C7" d="M110.2,368.8H37.3c-7.5,0-13.6,6.1-13.6,13.6v174.8c0,7.5,6.1,13.6,13.6,13.6h72.9
							c7.5,0,13.6-6.1,13.6-13.6V382.4C123.8,374.9,117.7,368.8,110.2,368.8z M123.4,556c0,1.4-0.2,2.8-0.6,4.1
							c0,0.1-0.1,0.2-0.1,0.3c0,0.1-0.1,0.2-0.1,0.3c0,0.1-0.1,0.1-0.1,0.2c-0.1,0.2-0.2,0.4-0.3,0.6c0,0.1-0.1,0.2-0.1,0.3
							c-0.1,0.1-0.1,0.3-0.2,0.4c0,0.1-0.1,0.2-0.1,0.3c0,0.1-0.1,0.2-0.2,0.3c-0.1,0.2-0.3,0.5-0.5,0.7c-0.1,0.1-0.1,0.1-0.2,0.2
							c-0.1,0.1-0.1,0.2-0.2,0.2c-0.1,0.1-0.1,0.2-0.2,0.2c-0.1,0.1-0.1,0.2-0.2,0.2c-0.1,0.1-0.1,0.2-0.2,0.2
							c-0.1,0.2-0.3,0.3-0.4,0.5c-0.2,0.2-0.4,0.4-0.7,0.7c-0.1,0.1-0.1,0.1-0.2,0.2c-0.2,0.1-0.3,0.3-0.5,0.4
							c-0.1,0.1-0.1,0.1-0.2,0.2c-0.2,0.2-0.5,0.4-0.7,0.5c-0.1,0.1-0.2,0.1-0.3,0.2c-0.2,0.1-0.3,0.2-0.5,0.3
							c-0.1,0.1-0.2,0.1-0.3,0.1c-0.3,0.2-0.6,0.3-0.9,0.4c-0.1,0-0.2,0.1-0.2,0.1c-0.1,0-0.2,0.1-0.3,0.1c-0.1,0-0.2,0.1-0.3,0.1
							c-0.2,0.1-0.4,0.2-0.7,0.2c-0.1,0-0.2,0-0.2,0.1c-0.3,0.1-0.6,0.2-0.9,0.2c-0.1,0-0.2,0-0.3,0.1c-0.1,0-0.2,0-0.3,0.1
							c-0.2,0-0.4,0.1-0.6,0.1h0c0,0-0.1,0-0.1,0c0,0-0.1,0-0.1,0c0,0,0,0,0,0c0.2,0,0.4,0,0.6-0.1c0.1,0,0.2,0,0.3,0
							c0.1,0,0.2,0,0.3-0.1c0.3-0.1,0.5-0.1,0.8-0.2c0.1,0,0.2-0.1,0.3-0.1c0.2-0.1,0.3-0.1,0.5-0.2c0.3-0.1,0.5-0.2,0.8-0.3
							c0.1,0,0.2-0.1,0.2-0.1c0.1,0,0.2-0.1,0.2-0.1c0.2-0.1,0.3-0.2,0.5-0.3c0.2-0.1,0.3-0.2,0.5-0.3c0.1-0.1,0.3-0.2,0.4-0.3
							c0,0,0,0,0,0c0.2-0.2,0.4-0.3,0.7-0.5c0.1-0.1,0.1-0.1,0.2-0.2c0.2-0.2,0.4-0.3,0.6-0.5c0.5-0.4,0.9-0.9,1.3-1.4
							c0.1-0.1,0.1-0.1,0.2-0.2c0.6-0.7,1-1.6,1.4-2.4c0.1-0.1,0.1-0.3,0.2-0.4c0.3-0.7,0.5-1.4,0.6-2.1c0-0.1,0.1-0.3,0.1-0.4
							c0.1-0.6,0.1-1.2,0.1-1.8V382.4c0-6.2-4.7-11.3-10.7-11.9c-0.1,0-0.2,0-0.3,0c-0.1,0-0.2,0-0.3,0h0c-0.2,0-0.4,0-0.6,0H37.3
							c-0.2,0-0.4,0-0.6,0h0c-6.3,0.3-11.4,5.6-11.4,12v174.8c0,6.2,4.7,11.2,10.6,11.9c-0.1,0-0.2,0-0.2,0h0
							c-0.2,0-0.4-0.1-0.6-0.1c-1.2-0.2-2.4-0.6-3.5-1.1c-0.1,0-0.2-0.1-0.2-0.1c-0.2-0.1-0.4-0.2-0.6-0.3c-0.1-0.1-0.2-0.1-0.3-0.2
							c-0.4-0.3-0.9-0.6-1.3-0.9c-0.1-0.1-0.1-0.1-0.2-0.2c-0.2-0.2-0.4-0.3-0.6-0.5c-0.1-0.1-0.1-0.1-0.2-0.2
							c-0.1-0.1-0.1-0.1-0.2-0.2c-0.1-0.1-0.1-0.1-0.2-0.2c0,0-0.1-0.1-0.1-0.1c-0.1-0.1-0.1-0.1-0.2-0.2c-0.3-0.4-0.7-0.8-0.9-1.2
							c-0.1-0.1-0.1-0.1-0.2-0.2c-0.2-0.2-0.3-0.5-0.5-0.7c-0.1-0.1-0.1-0.2-0.2-0.3c-0.4-0.7-0.7-1.3-0.9-2.1
							c0-0.1-0.1-0.2-0.1-0.3c-0.2-0.5-0.3-1-0.4-1.5c0-0.1,0-0.2-0.1-0.3c-0.1-0.7-0.2-1.5-0.2-2.2V382.4c0-0.1,0-0.3,0-0.4
							c0-0.1,0-0.2,0-0.3c0-0.2,0-0.4,0-0.6c0-0.1,0-0.2,0-0.3c0-0.1,0-0.1,0-0.2c0-0.1,0-0.1,0-0.2c0-0.1,0-0.2,0.1-0.3
							c0-0.2,0.1-0.4,0.1-0.6c0-0.1,0-0.2,0.1-0.3c0.1-0.3,0.1-0.5,0.2-0.8c0-0.1,0.1-0.2,0.1-0.3c0-0.1,0.1-0.2,0.1-0.3
							c0-0.1,0.1-0.2,0.1-0.3c0-0.1,0.1-0.1,0.1-0.2c0-0.1,0.1-0.2,0.1-0.2c0-0.1,0.1-0.1,0.1-0.2c0-0.1,0.1-0.2,0.1-0.3
							c0.1-0.2,0.2-0.3,0.2-0.5c0-0.1,0.1-0.2,0.1-0.2c0-0.1,0.1-0.2,0.2-0.3c0.4-0.6,0.8-1.2,1.2-1.8c0.1-0.1,0.1-0.2,0.2-0.2
							c0.1-0.1,0.2-0.2,0.2-0.3c0.1-0.1,0.3-0.3,0.4-0.4c0.1-0.1,0.3-0.3,0.4-0.4c0.2-0.1,0.3-0.3,0.5-0.4c0.1-0.1,0.2-0.1,0.2-0.2
							c0.2-0.1,0.3-0.3,0.5-0.4c0.2-0.1,0.3-0.2,0.5-0.3c0.2-0.1,0.3-0.2,0.5-0.3c0.1-0.1,0.2-0.1,0.3-0.2c0.1-0.1,0.2-0.1,0.3-0.1
							c0.1,0,0.2-0.1,0.3-0.1c0.1,0,0.2-0.1,0.3-0.1c0.2-0.1,0.4-0.2,0.6-0.2c0.1,0,0.2-0.1,0.3-0.1c0,0,0,0,0,0
							c0.1,0,0.2-0.1,0.3-0.1c0.1,0,0.2-0.1,0.3-0.1c0.1,0,0.2-0.1,0.3-0.1c0.1,0,0.2-0.1,0.3-0.1c0.1,0,0.2-0.1,0.3-0.1
							c0.1,0,0.2-0.1,0.3-0.1c0.2,0,0.4-0.1,0.6-0.1c0.1,0,0.2,0,0.3-0.1c0.2,0,0.5-0.1,0.7-0.1c0.2,0,0.4,0,0.6,0
							c0.1,0,0.2,0,0.3,0c0.1,0,0.2,0,0.3,0h72.9c0.1,0,0.2,0,0.3,0c0.1,0,0.2,0,0.3,0c0.2,0,0.4,0,0.6,0h0c0.1,0,0.2,0,0.3,0
							c0.1,0,0.2,0,0.3,0c0.1,0,0.2,0,0.3,0.1s0.2,0,0.3,0.1c0,0,0,0,0,0c0.1,0,0.2,0,0.3,0.1c0.1,0,0.2,0,0.3,0.1c0,0,0,0,0.1,0
							c0.1,0,0.2,0,0.3,0.1c0.1,0,0.2,0.1,0.4,0.1c0.1,0,0.2,0.1,0.2,0.1c0.2,0.1,0.4,0.1,0.5,0.2c0.1,0,0.2,0.1,0.4,0.1
							c0.1,0,0.2,0.1,0.3,0.1c0.1,0,0.2,0.1,0.3,0.1c0.1,0,0.2,0.1,0.3,0.1c0.7,0.3,1.3,0.7,1.9,1.1c0.1,0.1,0.1,0.1,0.2,0.2
							c0.3,0.2,0.5,0.4,0.8,0.6c0.1,0.1,0.2,0.2,0.3,0.3c0.4,0.4,0.8,0.8,1.2,1.3c0.1,0.1,0.1,0.2,0.2,0.2c0.1,0.2,0.3,0.3,0.4,0.5
							c0.1,0.1,0.1,0.2,0.2,0.3c0.1,0.1,0.2,0.3,0.3,0.5c0,0.1,0.1,0.2,0.1,0.2c0.1,0.1,0.2,0.3,0.3,0.5c0,0.1,0.1,0.1,0.1,0.2
							c0.1,0.3,0.3,0.5,0.4,0.8c0,0.1,0.1,0.1,0.1,0.2c0.1,0.3,0.2,0.5,0.3,0.8c0,0.1,0.1,0.2,0.1,0.3c0.2,0.6,0.3,1.2,0.4,1.8
							c0,0.1,0,0.1,0,0.2c0,0.1,0,0.2,0,0.3c0,0.1,0,0.2,0,0.3c0,0.1,0,0.2,0,0.3c0,0.2,0,0.4,0,0.6c0,0.1,0,0.3,0,0.4V556z"/>
						<g id="XMLID_85_">
							<linearGradient id="XMLID_97_" gradientUnits="userSpaceOnUse" x1="24.0333" y1="469.8089" x2="25.5009" y2="469.8089">
								<stop  offset="0" style="stop-color:#676767"/>
								<stop  offset="6.779785e-002" style="stop-color:#727171"/>
								<stop  offset="0.3379" style="stop-color:#A09E9E"/>
								<stop  offset="0.5713" style="stop-color:#C8C6C6"/>
								<stop  offset="0.7565" style="stop-color:#E5E4E4"/>
								<stop  offset="0.8704" style="stop-color:#F2F2F2"/>
								<stop  offset="0.9658" style="stop-color:#F9F9F9"/>
								<stop  offset="1" style="stop-color:#FFFFFF"/>
							</linearGradient>
							<path id="XMLID_88_" fill="url(#XMLID_97_)" d="M36,569.2c-0.1,0-0.2,0-0.3,0h0c-0.2,0-0.4-0.1-0.6-0.1
								c-1.2-0.2-2.4-0.6-3.5-1.1c-0.1,0-0.2-0.1-0.2-0.1c-0.2-0.1-0.4-0.2-0.6-0.3c-0.1-0.1-0.2-0.1-0.3-0.2
								c-0.4-0.3-0.9-0.6-1.3-0.9c-0.1-0.1-0.1-0.1-0.2-0.2c-0.2-0.2-0.4-0.3-0.6-0.5c-0.1-0.1-0.1-0.1-0.2-0.2
								c-0.1-0.1-0.1-0.1-0.2-0.2c-0.1-0.1-0.1-0.1-0.2-0.2c0,0-0.1-0.1-0.1-0.1c-0.1-0.1-0.1-0.1-0.2-0.2c-0.3-0.4-0.7-0.8-0.9-1.2
								c-0.1-0.1-0.1-0.1-0.2-0.2c-0.2-0.2-0.3-0.5-0.5-0.7c-0.1-0.1-0.1-0.2-0.2-0.3c-0.4-0.7-0.7-1.3-0.9-2.1
								c0-0.1-0.1-0.2-0.1-0.3c-0.2-0.5-0.3-1-0.4-1.5c0-0.1,0-0.2-0.1-0.3c-0.1-0.7-0.2-1.5-0.2-2.2V383.7
								c0-7.1,5.6-12.9,12.6-13.2c-6.3,0.3-11.4,5.6-11.4,12v174.8C25.3,563.4,30,568.5,36,569.2z"/>
							<linearGradient id="XMLID_98_" gradientUnits="userSpaceOnUse" x1="122.1858" y1="469.8191" x2="123.6406" y2="469.8191">
								<stop  offset="0" style="stop-color:#FFFFFF"/>
								<stop  offset="3.418483e-002" style="stop-color:#F9F9F9"/>
								<stop  offset="0.1296" style="stop-color:#F2F2F2"/>
								<stop  offset="0.2435" style="stop-color:#E5E4E4"/>
								<stop  offset="0.4287" style="stop-color:#C8C6C6"/>
								<stop  offset="0.6621" style="stop-color:#A09E9E"/>
								<stop  offset="0.9322" style="stop-color:#727171"/>
								<stop  offset="1" style="stop-color:#676767"/>
							</linearGradient>
							<path id="XMLID_87_" fill="url(#XMLID_98_)" d="M123.4,383.7V556c0,1.4-0.2,2.8-0.6,4.1c0,0.1-0.1,0.2-0.1,0.3
								c0,0.1-0.1,0.2-0.1,0.3c0,0.1-0.1,0.1-0.1,0.2c-0.1,0.2-0.2,0.4-0.3,0.6c0,0.1-0.1,0.2-0.1,0.3c-0.1,0.1-0.1,0.3-0.2,0.4
								c0,0.1-0.1,0.2-0.1,0.3c0,0.1-0.1,0.2-0.2,0.3c-0.1,0.2-0.3,0.5-0.5,0.7c-0.1,0.1-0.1,0.1-0.2,0.2c-0.1,0.1-0.1,0.2-0.2,0.2
								c-0.1,0.1-0.1,0.2-0.2,0.2c-0.1,0.1-0.1,0.2-0.2,0.2c-0.1,0.1-0.1,0.2-0.2,0.2c-0.1,0.2-0.3,0.3-0.4,0.5
								c-0.2,0.2-0.4,0.4-0.7,0.7c-0.1,0.1-0.1,0.1-0.2,0.2c-0.2,0.1-0.3,0.3-0.5,0.4c-0.1,0.1-0.1,0.1-0.2,0.2
								c-0.2,0.2-0.5,0.4-0.7,0.5c-0.1,0.1-0.2,0.1-0.3,0.2c-0.2,0.1-0.3,0.2-0.5,0.3c-0.1,0.1-0.2,0.1-0.3,0.1
								c-0.3,0.2-0.6,0.3-0.9,0.4c-0.1,0-0.2,0.1-0.2,0.1c-0.1,0-0.2,0.1-0.3,0.1c-0.1,0-0.2,0.1-0.3,0.1c-0.2,0.1-0.4,0.2-0.7,0.2
								c-0.1,0-0.2,0-0.2,0.1c-0.3,0.1-0.6,0.2-0.9,0.2c-0.1,0-0.2,0-0.3,0.1c-0.1,0-0.2,0-0.3,0.1c-0.2,0-0.4,0.1-0.6,0.1h0
								c-0.1,0-0.2,0-0.3,0c6-0.6,10.7-5.7,10.7-11.9V382.4c0-6.3-4.9-11.5-11-11.9C118,371,123.4,376.7,123.4,383.7z"/>
							<linearGradient id="XMLID_99_" gradientUnits="userSpaceOnUse" x1="73.7266" y1="570.5004" x2="73.7266" y2="558.8804">
								<stop  offset="0" style="stop-color:#F2F2F2"/>
								<stop  offset="0.1298" style="stop-color:#D8D7D7"/>
								<stop  offset="0.3743" style="stop-color:#A6A3A3"/>
								<stop  offset="0.7044" style="stop-color:#656261"/>
								<stop  offset="1" style="stop-color:#333333"/>
							</linearGradient>
							<path id="XMLID_86_" fill="url(#XMLID_99_)" d="M123.4,556v1.3c0,7.3-5.9,13.2-13.2,13.2H37.3c-7.3,0-13.2-5.9-13.2-13.2V556
								c0,0.8,0.1,1.5,0.2,2.2c0,0.1,0,0.2,0.1,0.3c0.1,0.5,0.2,1,0.4,1.5c0,0.1,0.1,0.2,0.1,0.3c0.3,0.7,0.6,1.4,0.9,2.1
								c0,0.1,0.1,0.2,0.2,0.3c0.1,0.2,0.3,0.5,0.5,0.7c0.1,0.1,0.1,0.1,0.2,0.2c0.3,0.4,0.6,0.8,0.9,1.2c0.1,0.1,0.1,0.1,0.2,0.2
								c0,0.1,0.1,0.1,0.1,0.1c0.1,0.1,0.1,0.1,0.2,0.2c0.1,0.1,0.1,0.1,0.2,0.2c0.1,0.1,0.1,0.1,0.2,0.2c0.2,0.2,0.4,0.4,0.6,0.5
								c0.1,0.1,0.1,0.1,0.2,0.2c0.4,0.3,0.8,0.6,1.3,0.9c0.1,0.1,0.2,0.1,0.3,0.2c0.2,0.1,0.4,0.2,0.6,0.3c0.1,0,0.2,0.1,0.2,0.1
								c1.1,0.5,2.3,0.9,3.5,1.1c0.2,0,0.4,0.1,0.6,0.1h0c0.2,0,0.4,0,0.6,0.1c0.1,0,0.2,0,0.3,0c0.2,0,0.4,0,0.6,0h72.9
								c0.2,0,0.4,0,0.6,0c0.1,0,0.2,0,0.3,0c0.2,0,0.3,0,0.5,0c0,0,0.1,0,0.1,0h0c0.2,0,0.4-0.1,0.6-0.1c0.1,0,0.2,0,0.3-0.1
								c0.1,0,0.2,0,0.3-0.1c0.3-0.1,0.6-0.1,0.9-0.2c0.1,0,0.2,0,0.2-0.1c0.2-0.1,0.4-0.1,0.7-0.2c0.1,0,0.2-0.1,0.3-0.1
								c0.1,0,0.2-0.1,0.3-0.1c0.1,0,0.2-0.1,0.2-0.1c0.3-0.1,0.6-0.3,0.9-0.4c0.1,0,0.2-0.1,0.3-0.1c0.2-0.1,0.4-0.2,0.5-0.3
								c0.1-0.1,0.2-0.1,0.3-0.2c0.3-0.2,0.5-0.3,0.7-0.5c0.1-0.1,0.1-0.1,0.2-0.2c0.2-0.1,0.3-0.3,0.5-0.4c0.1-0.1,0.1-0.1,0.2-0.2
								c0.2-0.2,0.5-0.4,0.7-0.7c0.1-0.1,0.3-0.3,0.4-0.5c0.1-0.1,0.1-0.2,0.2-0.2c0.1-0.1,0.1-0.2,0.2-0.2c0.1-0.1,0.1-0.2,0.2-0.2
								c0.1-0.1,0.1-0.2,0.2-0.2c0.1-0.1,0.1-0.1,0.2-0.2c0.2-0.2,0.3-0.5,0.5-0.7c0.1-0.1,0.1-0.2,0.2-0.3c0-0.1,0.1-0.2,0.1-0.3
								c0.1-0.1,0.1-0.3,0.2-0.4c0-0.1,0.1-0.2,0.1-0.3c0.1-0.2,0.2-0.4,0.3-0.6c0-0.1,0.1-0.1,0.1-0.2c0-0.1,0.1-0.2,0.1-0.3
								c0-0.1,0.1-0.2,0.1-0.3C123.2,558.8,123.4,557.4,123.4,556z"/>
						</g>
						<linearGradient id="XMLID_100_" gradientUnits="userSpaceOnUse" x1="73.7266" y1="380.2599" x2="73.7266" y2="365.7515">
							<stop  offset="0" style="stop-color:#333333"/>
							<stop  offset="0.1856" style="stop-color:#5E5A5A"/>
							<stop  offset="0.3721" style="stop-color:#8B8787"/>
							<stop  offset="0.5521" style="stop-color:#B5B2B1"/>
							<stop  offset="0.7212" style="stop-color:#D8D6D5"/>
							<stop  offset="0.875" style="stop-color:#F1F0F0"/>
							<stop  offset="1" style="stop-color:#FFFFFF"/>
						</linearGradient>
						<path id="XMLID_84_" fill="url(#XMLID_100_)" d="M123.4,382.4v1.3c0-6.9-5.3-12.5-12-13.2c-0.1,0-0.2,0-0.3,0
							c-0.1,0-0.2,0-0.3,0h0c-0.2,0-0.4,0-0.6,0H37.3c-0.2,0-0.4,0-0.6,0h0c-7,0.3-12.6,6.1-12.6,13.2v-1.3c0-0.1,0-0.3,0-0.4
							c0-0.1,0-0.2,0-0.3c0-0.2,0-0.4,0-0.6c0-0.1,0-0.2,0-0.3c0-0.1,0-0.1,0-0.2c0-0.1,0-0.1,0-0.2c0-0.1,0-0.2,0.1-0.3
							c0-0.2,0.1-0.4,0.1-0.6c0-0.1,0-0.2,0.1-0.3c0.1-0.3,0.1-0.5,0.2-0.8c0-0.1,0.1-0.2,0.1-0.3c0-0.1,0.1-0.2,0.1-0.3
							c0-0.1,0.1-0.2,0.1-0.3c0-0.1,0.1-0.1,0.1-0.2c0-0.1,0.1-0.2,0.1-0.2c0-0.1,0.1-0.1,0.1-0.2c0-0.1,0.1-0.2,0.1-0.3
							c0.1-0.2,0.2-0.3,0.2-0.5c0-0.1,0.1-0.2,0.1-0.2c0-0.1,0.1-0.2,0.2-0.3c0.4-0.6,0.8-1.2,1.2-1.8c0.1-0.1,0.1-0.2,0.2-0.2
							c0.1-0.1,0.2-0.2,0.2-0.3c0.1-0.1,0.3-0.3,0.4-0.4c0.1-0.1,0.3-0.3,0.4-0.4c0.2-0.1,0.3-0.3,0.5-0.4c0.1-0.1,0.2-0.1,0.2-0.2
							c0.2-0.1,0.3-0.3,0.5-0.4c0.2-0.1,0.3-0.2,0.5-0.3c0.2-0.1,0.3-0.2,0.5-0.3c0.1-0.1,0.2-0.1,0.3-0.2c0.1-0.1,0.2-0.1,0.3-0.1
							c0.1,0,0.2-0.1,0.3-0.1c0.1,0,0.2-0.1,0.3-0.1c0.2-0.1,0.4-0.2,0.6-0.2c0.1,0,0.2-0.1,0.3-0.1c0,0,0,0,0,0
							c0.1,0,0.2-0.1,0.3-0.1c0.1,0,0.2-0.1,0.3-0.1c0.1,0,0.2-0.1,0.3-0.1c0.1,0,0.2-0.1,0.3-0.1c0.1,0,0.2-0.1,0.3-0.1
							c0.1,0,0.2-0.1,0.3-0.1c0.2,0,0.4-0.1,0.6-0.1c0.1,0,0.2,0,0.3-0.1c0.2,0,0.5-0.1,0.7-0.1c0.2,0,0.4,0,0.6,0
							c0.1,0,0.2,0,0.3,0c0.1,0,0.2,0,0.3,0h72.9c0.1,0,0.2,0,0.3,0c0.1,0,0.2,0,0.3,0c0.2,0,0.4,0,0.6,0h0c0.1,0,0.2,0,0.3,0
							c0.1,0,0.2,0,0.3,0c0.1,0,0.2,0,0.3,0.1s0.2,0,0.3,0.1c0,0,0,0,0,0c0.1,0,0.2,0,0.3,0.1c0.1,0,0.2,0,0.3,0.1c0,0,0,0,0.1,0
							c0.1,0,0.2,0,0.3,0.1c0.1,0,0.2,0.1,0.4,0.1c0.1,0,0.2,0.1,0.2,0.1c0.2,0.1,0.4,0.1,0.5,0.2c0.1,0,0.2,0.1,0.4,0.1
							c0.1,0,0.2,0.1,0.3,0.1c0.1,0,0.2,0.1,0.3,0.1c0.1,0,0.2,0.1,0.3,0.1c0.7,0.3,1.3,0.7,1.9,1.1c0.1,0.1,0.1,0.1,0.2,0.2
							c0.3,0.2,0.5,0.4,0.8,0.6c0.1,0.1,0.2,0.2,0.3,0.3c0.4,0.4,0.8,0.8,1.2,1.3c0.1,0.1,0.1,0.2,0.2,0.2c0.1,0.2,0.3,0.3,0.4,0.5
							c0.1,0.1,0.1,0.2,0.2,0.3c0.1,0.1,0.2,0.3,0.3,0.5c0,0.1,0.1,0.2,0.1,0.2c0.1,0.1,0.2,0.3,0.3,0.5c0,0.1,0.1,0.1,0.1,0.2
							c0.1,0.3,0.3,0.5,0.4,0.8c0,0.1,0.1,0.1,0.1,0.2c0.1,0.3,0.2,0.5,0.3,0.8c0,0.1,0.1,0.2,0.1,0.3c0.2,0.6,0.3,1.2,0.4,1.8
							c0,0.1,0,0.1,0,0.2c0,0.1,0,0.2,0,0.3c0,0.1,0,0.2,0,0.3c0,0.1,0,0.2,0,0.3c0,0.2,0,0.4,0,0.6
							C123.4,382.2,123.4,382.3,123.4,382.4z"/>
					</g>
					<g id="XMLID_78_">
						<path id="XMLID_79_" fill="#414141" d="M110.8,370.4L110.8,370.4c-0.2,0-0.4,0-0.6,0H37.3c-0.2,0-0.4,0-0.6,0h0
							c-6.3,0.3-11.4,5.6-11.4,12v174.8c0,6.3,4.9,11.5,11,11.9c0.1,0,0.2,0,0.3,0c0.2,0,0.4,0,0.6,0h72.9c0.2,0,0.4,0,0.6,0
							c0.1,0,0.2,0,0.3,0c6.2-0.5,11-5.7,11-11.9V382.4C122.2,376,117.1,370.8,110.8,370.4z M121.1,557.3c0,5.7-4.4,10.5-10.1,10.9
							c-0.1,0-0.2,0-0.3,0c-0.2,0-0.4,0-0.6,0H37.3c-0.2,0-0.4,0-0.6,0c-0.1,0-0.2,0-0.3,0c-5.7-0.4-10.1-5.3-10.1-10.9V382.4
							c0-5.8,4.6-10.6,10.4-11h0l0,0c0.2,0,0.4,0,0.6,0h72.9c0.2,0,0.4,0,0.6,0l0,0c5.8,0.3,10.4,5.1,10.4,11V557.3z"/>
					</g>
					<linearGradient id="XMLID_101_" gradientUnits="userSpaceOnUse" x1="117.6084" y1="469.8848" x2="121.1413" y2="469.8848">
						<stop  offset="0" style="stop-color:#F2F2F2"/>
						<stop  offset="9.286198e-002" style="stop-color:#BBB8B8"/>
						<stop  offset="0.2355" style="stop-color:#817D7D"/>
						<stop  offset="0.3717" style="stop-color:#5C5958"/>
						<stop  offset="0.4978" style="stop-color:#454343"/>
						<stop  offset="0.6103" style="stop-color:#383737"/>
						<stop  offset="0.6978" style="stop-color:#333333"/>
					</linearGradient>
					<path id="XMLID_77_" fill="url(#XMLID_101_)" d="M121.1,382.5v174.8c0,1.1-0.2,2.1-0.5,3.1c-0.2,0.8-0.6,1.6-1,2.3
						c-0.1,0.1-0.2,0.3-0.3,0.4c-0.1,0.2-0.3,0.4-0.4,0.6c-0.4,0.6-0.9,1.1-1.4,1.6c1-1.7,1.5-3.6,1.5-5.7v-2c0-0.1,0-0.2,0-0.4
						V382.5c0-0.1,0-0.2,0-0.4v-2c0-2.1-0.5-4-1.5-5.7C119.8,376.4,121.1,379.3,121.1,382.5z"/>
					<g id="XMLID_70_">
						<path id="XMLID_73_" fill="#010101" d="M110.7,372.5L110.7,372.5c-0.2,0-0.4,0-0.5,0H37.3c-0.2,0-0.3,0-0.5,0l0,0h0
							c-5.3,0.3-9.4,4.7-9.4,9.9v174.8c0,5.2,4,9.5,9.2,9.9c0.1,0,0.2,0,0.2,0h0c0.2,0,0.3,0,0.5,0h72.9c0.2,0,0.3,0,0.5,0h0
							c0.1,0,0.2,0,0.3,0c5.1-0.4,9.2-4.8,9.2-9.9V382.4C120.1,377.1,116,372.7,110.7,372.5z M117.5,557.3c0,1.7-0.6,3.2-1.5,4.4
							c-0.1,0.1-0.1,0.1-0.2,0.2c-0.2,0.2-0.3,0.4-0.5,0.6c-0.2,0.2-0.3,0.3-0.5,0.4h0c-0.2,0.2-0.4,0.3-0.7,0.5
							c-0.2,0.2-0.5,0.3-0.7,0.4h0c-0.1,0.1-0.3,0.1-0.4,0.2c0,0,0,0,0,0c-0.1,0.1-0.3,0.1-0.4,0.2c-0.3,0.1-0.5,0.2-0.8,0.2
							c-0.3,0.1-0.7,0.1-1,0.2c0,0-0.1,0-0.1,0h0l0,0h0c0,0-0.1,0-0.1,0c0,0-0.1,0-0.1,0c-0.1,0-0.1,0-0.2,0H37.3
							c-0.1,0-0.1,0-0.2,0c-0.1,0-0.1,0-0.2,0h0l0,0h0c0,0-0.1,0-0.1,0c-3.8-0.3-6.7-3.5-6.7-7.3V382.4c0-3.8,3-7,6.8-7.3h0.1l0.1,0
							c0.1,0,0.2,0,0.3,0h72.9c0.1,0,0.2,0,0.3,0l0,0h0c0,0,0,0,0.1,0c0.1,0,0.1,0,0.2,0c0,0,0.1,0,0.1,0c0.1,0,0.1,0,0.2,0
							c0.1,0,0.2,0,0.2,0c0,0,0,0,0,0c0.1,0,0.2,0,0.3,0.1c0,0,0,0,0.1,0c0.1,0,0.2,0,0.3,0.1c0.1,0,0.3,0.1,0.4,0.1
							c0.1,0,0.2,0.1,0.3,0.1c0.1,0,0.2,0.1,0.3,0.1c0.2,0.1,0.4,0.2,0.6,0.3c0.2,0.1,0.4,0.2,0.5,0.3c0,0,0.1,0.1,0.1,0.1
							c0.1,0,0.1,0.1,0.2,0.1c0.1,0.1,0.2,0.1,0.3,0.2c0.2,0.1,0.3,0.3,0.5,0.4c0.1,0.1,0.2,0.2,0.2,0.2c0.1,0.1,0.2,0.2,0.2,0.2
							c0.3,0.3,0.6,0.7,0.8,1.1c0.1,0.2,0.2,0.4,0.3,0.6c0.1,0.2,0.2,0.4,0.3,0.6c0,0.1,0.1,0.2,0.1,0.3c0.1,0.2,0.1,0.5,0.2,0.7
							c0,0.1,0,0.2,0,0.3c0.1,0.3,0.1,0.7,0.1,1.1V557.3z"/>
						<path id="XMLID_72_" fill="#010101" d="M49.5,378.5c0,0,0-0.1-0.1-0.1c0,0,0,0,0-0.1C49.4,378.3,49.4,378.4,49.5,378.5z"/>
						<path id="XMLID_71_" fill="#010101" d="M98.1,378.3C98.1,378.3,98.1,378.3,98.1,378.3c0,0.1-0.1,0.2-0.1,0.2
							C98,378.4,98,378.3,98.1,378.3z"/>
					</g>
					<path id="XMLID_69_" fill="#010101" d="M99.7,375.1c-0.6,0-1.1,0.5-1.1,1.1c0,0.1,0,0.1,0,0.2c0,0.2,0,0.4-0.1,0.7
						c0,0.1,0,0.1,0,0.2c0,0,0,0,0,0c0,0.1,0,0.2-0.1,0.3c0,0.1,0,0.2-0.1,0.2c0,0,0,0,0,0.1c0,0,0,0,0,0.1c0,0,0,0,0,0
						c0,0,0,0.1,0,0.1c0,0,0,0.1,0,0.1c0,0.1-0.1,0.1-0.1,0.2c0,0.1-0.1,0.1-0.1,0.2c0,0,0,0,0,0c0,0,0,0,0,0c0,0.1-0.1,0.1-0.1,0.2
						c0,0,0,0.1-0.1,0.1c0,0,0,0,0,0c0,0,0,0,0,0.1c0,0,0,0.1-0.1,0.1c0,0,0,0,0,0c0,0,0,0,0,0c0,0,0,0,0,0.1c0,0,0,0,0,0.1
						c0,0,0,0,0,0.1c0,0,0,0,0,0c0,0,0,0,0,0.1c0,0,0,0,0,0c0,0,0,0-0.1,0.1c0,0,0,0,0,0s0,0,0,0c0,0,0,0.1-0.1,0.1c0,0,0,0,0,0
						c0,0,0,0.1-0.1,0.1h0c0,0-0.1,0.1-0.1,0.1c0,0-0.1,0.1-0.1,0.1c0,0,0,0,0,0h0c0,0,0,0-0.1,0.1c0,0,0,0-0.1,0.1c0,0,0,0-0.1,0.1
						c0,0-0.1,0.1-0.1,0.1c0,0-0.1,0.1-0.1,0.1c0,0,0,0-0.1,0.1c0,0-0.1,0.1-0.1,0.1c0,0-0.1,0.1-0.1,0.1c0,0-0.1,0-0.1,0.1
						c0,0-0.1,0-0.1,0.1c0,0,0,0,0,0c0,0-0.1,0-0.1,0.1c0,0,0,0,0,0c-0.1,0-0.1,0.1-0.2,0.1c0,0-0.1,0.1-0.1,0.1
						c-0.1,0-0.1,0.1-0.2,0.1c0,0,0,0-0.1,0c0,0,0,0,0,0c0,0-0.1,0-0.1,0.1c0,0-0.1,0-0.1,0.1c0,0-0.1,0-0.1,0c0,0,0,0-0.1,0
						c0,0,0,0,0,0h0c-0.1,0-0.2,0.1-0.3,0.1c-0.1,0-0.2,0.1-0.2,0.1c-0.1,0-0.2,0.1-0.3,0.1c-0.2,0-0.4,0.1-0.6,0.1
						c-0.1,0-0.2,0-0.2,0c0,0,0,0,0,0c-0.1,0-0.1,0-0.2,0c-0.1,0-0.2,0-0.2,0c0,0-0.1,0-0.1,0H54.7c0,0,0,0-0.1,0
						c-0.1,0-0.2,0-0.2,0c-0.1,0-0.1,0-0.2,0c0,0,0,0,0,0c-0.1,0-0.2,0-0.2,0c-0.2,0-0.4-0.1-0.6-0.1c-0.1,0-0.2,0-0.3-0.1
						c-0.1,0-0.2-0.1-0.2-0.1c-0.1,0-0.2-0.1-0.3-0.1h0c0,0,0,0,0,0c0,0,0,0-0.1,0c0,0-0.1,0-0.1,0c0,0-0.1,0-0.1-0.1
						c0,0-0.1,0-0.1-0.1c0,0,0,0,0,0c0,0,0,0-0.1,0c-0.1,0-0.1-0.1-0.2-0.1c0,0-0.1,0-0.1-0.1c-0.1,0-0.1-0.1-0.2-0.1c0,0,0,0,0,0
						c0,0-0.1,0-0.1-0.1c0,0,0,0,0,0c0,0-0.1,0-0.1-0.1c0,0-0.1,0-0.1-0.1c0,0-0.1-0.1-0.1-0.1c0,0-0.1-0.1-0.1-0.1c0,0,0,0-0.1-0.1
						c0,0-0.1-0.1-0.1-0.1c0,0-0.1-0.1-0.1-0.1c0,0,0,0-0.1-0.1c0,0,0,0-0.1-0.1c0,0,0,0-0.1-0.1h0c0,0,0,0,0-0.1
						c0-0.1-0.1-0.1-0.1-0.2h0c0,0,0-0.1-0.1-0.1c0,0,0,0,0,0c0,0,0-0.1-0.1-0.1c0,0,0,0,0,0c0,0,0,0,0,0c0,0,0,0-0.1-0.1
						c0,0,0,0,0,0c0,0,0,0,0-0.1c0,0,0,0,0,0c0,0,0,0,0-0.1c0,0,0,0,0-0.1c0,0,0,0,0-0.1c0,0,0,0,0,0c0,0,0,0,0,0c0,0,0-0.1-0.1-0.1
						c0,0,0,0,0-0.1c0,0,0,0,0,0c0,0-0.1-0.1-0.1-0.1c0-0.1-0.1-0.1-0.1-0.2c0,0,0,0,0,0c0,0,0,0,0,0c0-0.1-0.1-0.1-0.1-0.2
						c0-0.1-0.1-0.1-0.1-0.2c0,0,0-0.1,0-0.1c0,0,0-0.1,0-0.1c0,0,0,0,0,0c0,0,0,0,0-0.1c0,0,0,0,0-0.1c0-0.1,0-0.2-0.1-0.2
						c0-0.1,0-0.2-0.1-0.3c0,0,0,0,0,0c0-0.1,0-0.1,0-0.2c0-0.2-0.1-0.4-0.1-0.7c0-0.1,0-0.1,0-0.2c-0.1-0.6-0.5-1.1-1.1-1.1H99.7z"
						/>
					<path id="XMLID_68_" fill="#010101" d="M54.4,381.9c0.1,0,0.2,0,0.2,0c0,0-0.1,0-0.1,0C54.4,381.9,54.4,381.9,54.4,381.9
						c-0.1,0-0.1,0-0.2,0c0,0,0,0,0,0C54.2,381.8,54.3,381.9,54.4,381.9z"/>
					<path id="XMLID_67_" fill="#010101" d="M93.3,381.8C93.3,381.8,93.3,381.8,93.3,381.8c-0.1,0-0.1,0-0.2,0c0,0-0.1,0-0.1,0
						c0,0-0.1,0-0.1,0c0.1,0,0.2,0,0.2,0C93.2,381.9,93.2,381.8,93.3,381.8z"/>
					<path id="XMLID_66_" fill="#010101" d="M49.3,378.1C49.3,378.1,49.3,378.1,49.3,378.1C49.3,378,49.3,378,49.3,378.1
						C49.3,378,49.3,378,49.3,378.1z"/>
					<path id="XMLID_65_" fill="#010101" d="M49.5,378.5c0,0,0-0.1-0.1-0.1c0,0,0,0,0-0.1C49.4,378.3,49.4,378.4,49.5,378.5z"/>
					<path id="XMLID_64_" fill="#010101" d="M50.2,379.6C50.2,379.6,50.1,379.6,50.2,379.6C50.1,379.6,50.1,379.6,50.2,379.6
						C50.1,379.6,50.2,379.6,50.2,379.6z"/>
					<path id="XMLID_63_" fill="#010101" d="M50.4,379.9C50.4,379.9,50.3,379.9,50.4,379.9c-0.1-0.1-0.1-0.1-0.1-0.2h0
						C50.3,379.8,50.4,379.9,50.4,379.9z"/>
					<path id="XMLID_62_" fill="#010101" d="M50.5,380C50.5,380,50.5,380,50.5,380L50.5,380C50.5,380,50.5,380,50.5,380z"/>
					<path id="XMLID_61_" fill="#010101" d="M51.2,380.7c0,0-0.1-0.1-0.1-0.1c0,0-0.1,0-0.1-0.1c0,0,0,0-0.1-0.1
						c0,0,0.1,0.1,0.1,0.1C51.1,380.6,51.1,380.6,51.2,380.7z"/>
					<path id="XMLID_60_" fill="#010101" d="M51.3,380.7C51.3,380.7,51.3,380.8,51.3,380.7C51.4,380.8,51.4,380.8,51.3,380.7
						C51.3,380.8,51.3,380.7,51.3,380.7z"/>
					<path id="XMLID_59_" fill="#010101" d="M51.7,381C51.7,381,51.6,381,51.7,381c-0.1-0.1-0.1-0.1-0.1-0.1c0,0,0,0-0.1,0
						C51.6,380.9,51.6,381,51.7,381z"/>
					<path id="XMLID_58_" fill="#010101" d="M52.8,381.5c-0.1,0-0.1-0.1-0.2-0.1c0,0,0,0,0,0C52.6,381.5,52.7,381.5,52.8,381.5z"/>
					<path id="XMLID_57_" fill="#010101" d="M53,381.6c0.1,0,0.2,0.1,0.3,0.1C53.2,381.7,53.2,381.7,53,381.6
						C53.1,381.6,53.1,381.6,53,381.6c0,0-0.1,0-0.1,0c0,0-0.1,0-0.1,0C52.9,381.6,52.9,381.6,53,381.6z"/>
					<path id="XMLID_56_" fill="#010101" d="M53.9,381.8c0.1,0,0.2,0,0.2,0C54,381.8,54,381.8,53.9,381.8
						C53.9,381.8,53.9,381.8,53.9,381.8C53.8,381.8,53.8,381.8,53.9,381.8c-0.2,0-0.2,0-0.3,0c-0.1,0-0.2,0-0.2-0.1c0,0,0,0,0,0
						C53.5,381.7,53.7,381.8,53.9,381.8z"/>
					<path id="XMLID_55_" fill="#010101" d="M54.4,381.9L54.4,381.9C54.3,381.9,54.3,381.9,54.4,381.9c-0.1,0-0.2,0-0.2,0
						c0,0,0,0,0,0C54.2,381.8,54.3,381.9,54.4,381.9z"/>
					<path id="XMLID_54_" fill="#010101" d="M92.8,381.9C92.7,381.9,92.7,381.9,92.8,381.9l-38,0c0,0-0.1,0-0.1,0H92.8z"/>
					<path id="XMLID_53_" fill="#010101" d="M93.1,381.9c0.1,0,0.1,0,0.2,0c0,0,0,0,0,0C93.2,381.8,93.2,381.9,93.1,381.9
						C93.2,381.9,93.1,381.9,93.1,381.9L93.1,381.9z"/>
					<path id="XMLID_52_" fill="#010101" d="M93.6,381.8c0.2,0,0.4-0.1,0.6-0.1c0,0,0,0,0,0c-0.1,0-0.2,0-0.2,0.1
						C93.8,381.8,93.7,381.8,93.6,381.8C93.6,381.8,93.6,381.8,93.6,381.8C93.6,381.8,93.6,381.8,93.6,381.8c-0.1,0-0.2,0-0.2,0
						C93.4,381.8,93.5,381.8,93.6,381.8z"/>
					<path id="XMLID_51_" fill="#010101" d="M94.7,381.5c0,0-0.1,0-0.1,0c0,0-0.1,0-0.1,0c0,0-0.1,0-0.1,0c-0.1,0-0.1,0-0.2,0
						c0.1,0,0.2,0,0.3-0.1C94.5,381.6,94.6,381.6,94.7,381.5z"/>
					<path id="XMLID_50_" fill="#010101" d="M94.7,381.5c0.1,0,0.2-0.1,0.3-0.1c0,0,0,0,0,0C94.8,381.5,94.8,381.5,94.7,381.5z"/>
					<path id="XMLID_49_" fill="#010101" d="M95.8,381c0.1,0,0.1-0.1,0.2-0.1c0,0,0,0-0.1,0C95.9,380.9,95.9,380.9,95.8,381
						C95.8,381,95.8,381,95.8,381z"/>
					<path id="XMLID_48_" fill="#010101" d="M96.2,380.7C96.2,380.7,96.1,380.8,96.2,380.7C96.1,380.8,96.1,380.8,96.2,380.7
						C96.1,380.8,96.1,380.7,96.2,380.7z"/>
					<path id="XMLID_47_" fill="#010101" d="M96.5,380.4C96.5,380.4,96.5,380.5,96.5,380.4c-0.1,0.1-0.1,0.1-0.1,0.1
						c0,0-0.1,0.1-0.1,0.1c0,0,0.1-0.1,0.1-0.1C96.4,380.5,96.5,380.5,96.5,380.4z"/>
					<path id="XMLID_46_" fill="#010101" d="M97,380C97,380,97,380,97,380C97,380,97,380,97,380L97,380z"/>
					<path id="XMLID_45_" fill="#010101" d="M97.2,379.8C97.2,379.8,97.1,379.8,97.2,379.8c-0.1,0.1-0.1,0.1-0.1,0.1
						C97.1,379.8,97.1,379.8,97.2,379.8L97.2,379.8z"/>
					<path id="XMLID_44_" fill="#010101" d="M97.3,379.6C97.3,379.6,97.3,379.6,97.3,379.6C97.3,379.6,97.3,379.6,97.3,379.6
						C97.3,379.6,97.3,379.6,97.3,379.6z"/>
					<path id="XMLID_43_" fill="#010101" d="M98.1,378.3C98.1,378.3,98.1,378.3,98.1,378.3c0,0.1-0.1,0.2-0.1,0.2
						C98,378.4,98,378.3,98.1,378.3z"/>
					<path id="XMLID_42_" fill="#010101" d="M98.2,378C98.2,378,98.2,378,98.2,378C98.2,378.1,98.2,378.1,98.2,378
						C98.2,378,98.2,378,98.2,378z"/>
					<g id="XMLID_37_">
						<linearGradient id="XMLID_102_" gradientUnits="userSpaceOnUse" x1="28.3376" y1="562.7935" x2="119.1182" y2="562.7935">
							<stop  offset="0" style="stop-color:#010101"/>
							<stop  offset="9.862328e-002" style="stop-color:#1C1C1C"/>
							<stop  offset="0.2173" style="stop-color:#2D2D2D"/>
							<stop  offset="0.3306" style="stop-color:#383838"/>
							<stop  offset="0.4353" style="stop-color:#3F3F3F"/>
							<stop  offset="0.5229" style="stop-color:#414141"/>
							<stop  offset="0.5966" style="stop-color:#3E3E3E"/>
							<stop  offset="0.7076" style="stop-color:#343434"/>
							<stop  offset="0.8422" style="stop-color:#242525"/>
							<stop  offset="0.994" style="stop-color:#030303"/>
							<stop  offset="1" style="stop-color:#010101"/>
						</linearGradient>
						<path id="XMLID_41_" fill="url(#XMLID_102_)" d="M119.1,557.7v2c0,2.1-0.5,4-1.5,5.7c-1.8,1.6-4,2.7-6.6,2.9
							c-0.1,0-0.2,0-0.3,0c-0.2,0-0.4,0-0.6,0H37.3c-0.2,0-0.4,0-0.6,0c-0.1,0-0.2,0-0.3,0c-0.1,0-0.3,0-0.4,0
							c-2.4-0.3-4.5-1.3-6.1-2.8c-1-1.7-1.5-3.6-1.5-5.7v-2.4c0,2.7,1.2,5.1,3.1,6.8c1.4,1.2,3.2,2,5.1,2.1c0.1,0,0.1,0,0.2,0l0,0h0
							c0.2,0,0.3,0,0.5,0h72.9c0.2,0,0.3,0,0.5,0h0l0,0c0.1,0,0.1,0,0.2,0C115.4,565.9,118.9,562.1,119.1,557.7z"/>
						<linearGradient id="XMLID_103_" gradientUnits="userSpaceOnUse" x1="28.3376" y1="376.9875" x2="121.1489" y2="376.9875">
							<stop  offset="0" style="stop-color:#010101"/>
							<stop  offset="9.862328e-002" style="stop-color:#1C1C1C"/>
							<stop  offset="0.2173" style="stop-color:#2D2D2D"/>
							<stop  offset="0.3306" style="stop-color:#383838"/>
							<stop  offset="0.4353" style="stop-color:#3F3F3F"/>
							<stop  offset="0.5229" style="stop-color:#414141"/>
							<stop  offset="0.5966" style="stop-color:#3E3E3E"/>
							<stop  offset="0.7076" style="stop-color:#343434"/>
							<stop  offset="0.8422" style="stop-color:#242525"/>
							<stop  offset="0.994" style="stop-color:#030303"/>
							<stop  offset="1" style="stop-color:#010101"/>
						</linearGradient>
						<path id="XMLID_40_" fill="url(#XMLID_103_)" d="M121.1,382.5L121.1,382.5c0-5.9-4.6-10.7-10.4-11l0,0c-0.2,0-0.4,0-0.6,0
							H37.3c-0.2,0-0.4,0-0.6,0l0,0h0c-0.2,0-0.5,0-0.7,0.1c-2.4,0.3-4.5,1.3-6.1,2.8c-1,1.7-1.5,3.6-1.5,5.7v2.4
							c0-2.7,1.2-5.2,3.1-6.8c1.4-1.2,3.3-2,5.3-2.1h0l0.1,0c0.2,0,0.3,0,0.4,0h72.9c0.1,0,0.2,0,0.4,0h0l0.1,0
							c4.6,0.2,8.3,4,8.5,8.6v-2c0-2.1-0.5-4-1.5-5.7C119.8,376.4,121.1,379.3,121.1,382.5z"/>
						<linearGradient id="XMLID_104_" gradientUnits="userSpaceOnUse" x1="26.3094" y1="469.8241" x2="28.4054" y2="469.8241">
							<stop  offset="0" style="stop-color:#414141"/>
							<stop  offset="0.3745" style="stop-color:#2D2E2E"/>
							<stop  offset="0.7872" style="stop-color:#171818"/>
							<stop  offset="1" style="stop-color:#0C0C0C"/>
						</linearGradient>
						<path id="XMLID_39_" fill="url(#XMLID_104_)" d="M29.9,565.3c-2.2-2-3.5-4.9-3.5-8V382.4c0-3.2,1.4-6.1,3.5-8.1
							c-1,1.7-1.5,3.6-1.5,5.7v179.6C28.3,561.7,28.9,563.6,29.9,565.3z"/>
						<linearGradient id="XMLID_105_" gradientUnits="userSpaceOnUse" x1="117.5983" y1="469.8949" x2="121.1413" y2="469.8949">
							<stop  offset="0" style="stop-color:#0C0C0C"/>
							<stop  offset="0.2128" style="stop-color:#171818"/>
							<stop  offset="0.6255" style="stop-color:#2D2E2E"/>
							<stop  offset="1" style="stop-color:#414141"/>
						</linearGradient>
						<path id="XMLID_38_" fill="url(#XMLID_105_)" d="M121.1,382.5v174.8c0,1.1-0.2,2.1-0.5,3.1c-0.2,0.8-0.6,1.6-1,2.3
							c-0.1,0.1-0.2,0.3-0.3,0.4c-0.1,0.2-0.3,0.4-0.4,0.6c-0.4,0.6-0.9,1.1-1.4,1.6c0,0,0,0,0,0c1-1.7,1.5-3.6,1.5-5.7V380.1
							c0-2.1-0.5-4-1.5-5.7C119.8,376.4,121.1,379.3,121.1,382.5z"/>
					</g>
					<g id="XMLID_35_">
						<linearGradient id="XMLID_106_" gradientUnits="userSpaceOnUse" x1="67.6041" y1="376.505" x2="79.2371" y2="376.505">
							<stop  offset="0" style="stop-color:#333333"/>
							<stop  offset="6.528440e-002" style="stop-color:#2E2E2E"/>
							<stop  offset="0.2066" style="stop-color:#242424"/>
							<stop  offset="0.3456" style="stop-color:#1D1D1D"/>
							<stop  offset="0.4787" style="stop-color:#1A1A1A"/>
							<stop  offset="0.7484" style="stop-color:#1C1B1C"/>
							<stop  offset="0.8455" style="stop-color:#1F1F1F"/>
							<stop  offset="0.9148" style="stop-color:#262626"/>
							<stop  offset="0.9704" style="stop-color:#2E2E2E"/>
							<stop  offset="1" style="stop-color:#333333"/>
						</linearGradient>
						<path id="XMLID_36_" fill="url(#XMLID_106_)" d="M78.9,377.1h-11c-0.2,0-0.3-0.1-0.3-0.3v-0.6c0-0.2,0.1-0.3,0.3-0.3h11
							c0.2,0,0.3,0.1,0.3,0.3v0.6C79.2,377,79.1,377.1,78.9,377.1z"/>
					</g>
					<g id="XMLID_33_">
						<defs>
							<path id="XMLID_34_" d="M110.7,375.1L110.7,375.1l-0.2,0c-0.1,0-0.2,0-0.3,0H99.7c-0.6,0-1.1,0.5-1.1,1.1c0,0,0,0.1,0,0.1v0
								c-0.1,3.1-2.7,5.5-5.8,5.5h-18h-2h-18c-3.1,0-5.7-2.5-5.8-5.5v0c0,0,0-0.1,0-0.1c-0.1-0.6-0.5-1.1-1.1-1.1H37.3
								c-0.1,0-0.2,0-0.3,0l-0.1,0h-0.1c-3.8,0.3-6.8,3.4-6.8,7.3v174.8c0,3.8,3,7,6.7,7.3c0,0,0.1,0,0.1,0h0l0,0h0l0,0
								c0.1,0,0.3,0,0.4,0h35.4h2h35.4c0.1,0,0.3,0,0.4,0l0,0h0l0,0h0c0,0,0.1,0,0.1,0c3.8-0.3,6.7-3.5,6.7-7.3V382.4
								C117.5,378.6,114.5,375.4,110.7,375.1z"/>
						</defs>
						<clipPath id="XMLID_107_">
							<use xlink:href="#XMLID_34_"  overflow="visible"/>
						</clipPath>
					</g>
				</g>
				<linearGradient id="XMLID_108_" gradientUnits="userSpaceOnUse" x1="6.6318" y1="402.7303" x2="140.8228" y2="536.9213">
					<stop  offset="0" style="stop-color:#F3F4F4"/>
					<stop  offset="0.3567" style="stop-color:#EEEEEF"/>
					<stop  offset="0.7845" style="stop-color:#DFE0E0"/>
					<stop  offset="1" style="stop-color:#D6D7D7"/>
				</linearGradient>
				<path id="XMLID_31_" fill="url(#XMLID_108_)" d="M117.5,382.4v174.8c0,1.7-0.6,3.2-1.5,4.4c-0.1,0.1-0.1,0.1-0.2,0.2
					c-0.2,0.2-0.3,0.4-0.5,0.6c-0.2,0.2-0.3,0.3-0.5,0.4h0c-0.2,0.2-0.4,0.3-0.7,0.5c-0.2,0.2-0.5,0.3-0.7,0.4h0
					c-0.1,0.1-0.3,0.1-0.4,0.2c0,0,0,0,0,0c-0.1,0.1-0.3,0.1-0.4,0.2c-0.3,0.1-0.5,0.2-0.8,0.2c-0.3,0.1-0.7,0.1-1,0.2
					c0,0-0.1,0-0.1,0h0l0,0h0l0,0c0,0-0.1,0-0.1,0c0,0-0.1,0-0.1,0c-0.1,0-0.1,0-0.2,0H37.3c-0.1,0-0.1,0-0.2,0c-0.1,0-0.1,0-0.2,0
					l0,0h0l0,0h0c0,0-0.1,0-0.1,0c-3.8-0.3-6.7-3.5-6.7-7.3V382.4c0-3.8,3-7,6.8-7.3h0.1l0.1,0c0.1,0,0.2,0,0.3,0h10.5
					c0.6,0,1.1,0.5,1.1,1.1c0,0,0,0.1,0,0.1v0c0,0,0,0,0,0c0,0.2,0,0.4,0.1,0.7c0,0.1,0,0.1,0,0.2c0,0,0,0,0,0c0,0.1,0,0.2,0.1,0.3
					c0,0.1,0,0.2,0.1,0.2c0,0,0,0,0,0.1c0,0,0,0,0,0.1c0,0,0,0,0,0c0,0,0,0.1,0,0.1c0,0,0,0.1,0,0.1c0,0,0,0,0,0
					c0,0.1,0.1,0.1,0.1,0.2c0,0.1,0.1,0.1,0.1,0.2c0,0,0,0,0,0c0,0,0,0,0,0c0,0.1,0.1,0.1,0.1,0.2c0,0,0,0.1,0.1,0.1c0,0,0,0,0,0
					c0,0,0,0,0,0.1c0,0,0,0.1,0.1,0.1c0,0,0,0,0,0c0,0,0,0,0,0c0,0,0,0,0,0.1c0,0,0,0,0,0.1c0,0,0,0,0,0.1c0,0,0,0,0,0
					c0,0,0,0,0,0.1c0,0,0,0,0,0c0,0,0,0,0.1,0.1c0,0,0,0,0,0c0,0,0,0,0,0c0,0,0,0.1,0.1,0.1c0,0,0,0,0,0c0,0,0,0.1,0.1,0.1h0
					c0,0,0,0,0,0.1c0,0,0.1,0.1,0.1,0.1c0,0,0,0,0,0.1h0c0,0,0,0,0.1,0.1c0,0,0,0,0.1,0.1c0,0,0,0,0.1,0.1c0,0,0.1,0.1,0.1,0.1
					c0,0,0.1,0.1,0.1,0.1c0,0,0,0,0.1,0.1c0,0,0,0,0.1,0.1c0,0,0.1,0,0.1,0.1v0c0,0,0.1,0.1,0.1,0.1c0,0,0.1,0,0.1,0.1
					c0,0,0,0,0.1,0.1c0,0,0,0,0,0c0,0,0,0,0,0c0,0,0.1,0,0.1,0.1c0,0,0,0,0,0c0,0,0,0,0.1,0c0,0,0,0,0,0c0,0,0.1,0,0.1,0.1
					c0,0,0.1,0.1,0.1,0.1c0.1,0,0.1,0.1,0.2,0.1c0,0,0,0,0.1,0c0,0,0,0,0,0c0,0,0.1,0,0.1,0.1c0,0,0.1,0,0.1,0.1c0,0,0.1,0,0.1,0
					c0,0,0,0,0.1,0c0,0,0,0,0,0c0,0,0,0,0,0c0.1,0,0.1,0.1,0.2,0.1c0,0,0.1,0,0.1,0c0,0,0.1,0,0.1,0v0c0,0,0.1,0,0.1,0
					c0.1,0,0.1,0,0.2,0c0,0,0,0,0,0c0.1,0,0.2,0,0.2,0.1c0.1,0,0.1,0,0.2,0c0,0,0.1,0,0.1,0v0c0,0,0,0,0,0c0.1,0,0.1,0,0.2,0
					c0,0,0,0,0,0c0,0,0,0,0,0c0,0,0.1,0,0.1,0c0,0,0,0,0.1,0c0,0,0.1,0,0.1,0c0.1,0,0.1,0,0.2,0c0,0,0,0,0.1,0h37.9c0,0,0.1,0,0.1,0
					c0.1,0,0.1,0,0.2,0c0,0,0.1,0,0.1,0c0,0,0,0,0.1,0c0,0,0.1,0,0.1,0c0,0,0,0,0,0c0,0,0,0,0,0c0.1,0,0.1,0,0.2,0c0,0,0,0,0,0v0
					c0,0,0.1,0,0.1,0c0.1,0,0.1,0,0.2,0c0.1,0,0.2,0,0.2-0.1c0,0,0,0,0,0c0.1,0,0.1,0,0.2,0c0,0,0.1,0,0.1,0v0c0,0,0.1,0,0.1,0
					c0,0,0.1,0,0.1,0c0.1,0,0.1-0.1,0.2-0.1c0,0,0,0,0,0c0,0,0,0,0,0c0,0,0,0,0.1,0c0,0,0.1,0,0.1,0c0,0,0.1,0,0.1-0.1
					c0,0,0.1,0,0.1-0.1c0,0,0,0,0,0c0,0,0,0,0.1,0c0.1,0,0.1-0.1,0.2-0.1c0,0,0.1,0,0.1-0.1c0,0,0.1,0,0.1-0.1c0,0,0,0,0,0
					c0,0,0,0,0.1,0c0,0,0,0,0,0c0,0,0.1,0,0.1-0.1c0,0,0,0,0,0c0,0,0,0,0,0c0,0,0,0,0.1-0.1c0,0,0.1,0,0.1-0.1c0,0,0.1-0.1,0.1-0.1
					v0c0,0,0.1,0,0.1-0.1c0,0,0,0,0.1-0.1c0,0,0,0,0.1-0.1c0,0,0.1-0.1,0.1-0.1c0,0,0.1-0.1,0.1-0.1c0,0,0,0,0.1-0.1
					c0,0,0,0,0.1-0.1c0,0,0,0,0.1-0.1h0c0,0,0,0,0,0c0,0,0.1-0.1,0.1-0.1c0,0,0,0,0,0c0,0,0,0,0-0.1h0c0,0,0-0.1,0.1-0.1
					c0,0,0,0,0,0c0,0,0-0.1,0.1-0.1c0,0,0,0,0,0s0,0,0,0c0,0,0,0,0.1-0.1c0,0,0,0,0,0c0,0,0,0,0-0.1c0,0,0,0,0,0c0,0,0,0,0-0.1
					c0,0,0,0,0-0.1c0,0,0,0,0-0.1c0,0,0,0,0,0c0,0,0,0,0,0c0,0,0-0.1,0.1-0.1c0,0,0,0,0-0.1c0,0,0,0,0,0c0,0,0.1-0.1,0.1-0.1
					c0-0.1,0.1-0.1,0.1-0.2c0,0,0,0,0,0c0,0,0,0,0,0c0-0.1,0.1-0.1,0.1-0.2c0-0.1,0.1-0.1,0.1-0.2c0,0,0,0,0,0c0,0,0-0.1,0-0.1
					c0,0,0-0.1,0-0.1c0,0,0,0,0,0c0,0,0,0,0-0.1c0,0,0,0,0-0.1c0-0.1,0-0.2,0.1-0.2c0-0.1,0-0.2,0.1-0.3c0,0,0,0,0,0
					c0-0.1,0-0.1,0-0.2c0-0.2,0.1-0.4,0.1-0.7c0,0,0,0,0,0v0c0,0,0-0.1,0-0.1c0.1-0.6,0.5-1.1,1.1-1.1h10.5c0.1,0,0.2,0,0.3,0l0,0
					l0.1,0h0.1c0.1,0,0.1,0,0.2,0c0,0,0.1,0,0.1,0c0.1,0,0.1,0,0.2,0c0.1,0,0.2,0,0.2,0c0,0,0,0,0,0c0.1,0,0.2,0,0.3,0.1
					c0,0,0,0,0.1,0c0.1,0,0.2,0,0.3,0.1c0.1,0,0.3,0.1,0.4,0.1c0.1,0,0.2,0.1,0.3,0.1c0.1,0,0.2,0.1,0.3,0.1
					c0.2,0.1,0.4,0.2,0.6,0.3c0.2,0.1,0.4,0.2,0.5,0.3c0,0,0.1,0.1,0.1,0.1c0.1,0,0.1,0.1,0.2,0.1c0.1,0.1,0.2,0.1,0.3,0.2
					c0.2,0.1,0.3,0.3,0.5,0.4c0.1,0.1,0.2,0.2,0.2,0.2c0.1,0.1,0.2,0.2,0.2,0.2c0.3,0.3,0.6,0.7,0.8,1.1c0.1,0.2,0.2,0.4,0.3,0.6
					c0.1,0.2,0.2,0.4,0.3,0.6c0,0.1,0.1,0.2,0.1,0.3c0.1,0.2,0.1,0.5,0.2,0.7c0,0.1,0,0.2,0,0.3
					C117.5,381.7,117.5,382.1,117.5,382.4z"/>
			</g>
			<defs>
				<filter id="Adobe_OpacityMaskFilter_2_" filterUnits="userSpaceOnUse" x="28.7" y="365.8" width="92.4" height="195.7">
					<feFlood  style="flood-color:white;flood-opacity:1" result="back"/>
					<feBlend  in="SourceGraphic" in2="back" mode="normal"/>
				</filter>
			</defs>
			<mask maskUnits="userSpaceOnUse" x="28.7" y="365.8" width="92.4" height="195.7" id="XMLID_109_">
				<g id="XMLID_14_" filter="url(#Adobe_OpacityMaskFilter_2_)">
					<defs>
						<filter id="Adobe_OpacityMaskFilter_3_" filterUnits="userSpaceOnUse" x="28.7" y="365.8" width="92.4" height="195.7">
							<feFlood  style="flood-color:white;flood-opacity:1" result="back"/>
							<feBlend  in="SourceGraphic" in2="back" mode="normal"/>
						</filter>
					</defs>
					<mask maskUnits="userSpaceOnUse" x="28.7" y="365.8" width="92.4" height="195.7" id="XMLID_109_">
						<g id="XMLID_15_" filter="url(#Adobe_OpacityMaskFilter_3_)">
						</g>
					</mask>
					<linearGradient id="XMLID_110_" gradientUnits="userSpaceOnUse" x1="74.8992" y1="561.5254" x2="74.8992" y2="365.7943">
						<stop  offset="0" style="stop-color:#000000"/>
						<stop  offset="0.292" style="stop-color:#020202"/>
						<stop  offset="0.4296" style="stop-color:#0A0A0A"/>
						<stop  offset="0.5348" style="stop-color:#171717"/>
						<stop  offset="0.6238" style="stop-color:#292929"/>
						<stop  offset="0.7023" style="stop-color:#414141"/>
						<stop  offset="0.7735" style="stop-color:#5E5E5E"/>
						<stop  offset="0.8392" style="stop-color:#818181"/>
						<stop  offset="0.9007" style="stop-color:#AAAAAA"/>
						<stop  offset="0.9565" style="stop-color:#D7D7D7"/>
						<stop  offset="1" style="stop-color:#FFFFFF"/>
					</linearGradient>
					<path id="XMLID_16_" mask="url(#XMLID_109_)" fill="url(#XMLID_110_)" d="M28.7,554C28.7,554,28.7,554,28.7,554
						C28.7,554,28.7,554,28.7,554C28.7,554,28.7,554,28.7,554z M30.7,557.3C30.7,557.3,30.7,557.3,30.7,557.3c0,0,0.1,0.1,0.1,0.1
						C30.7,557.3,30.7,557.3,30.7,557.3z M35.3,560.7c0,0,0.1,0,0.1,0c0,0,0,0,0,0C35.5,560.8,35.4,560.7,35.3,560.7z M114.2,561.5
						C114.2,561.5,114.2,561.5,114.2,561.5c0,0,0.1,0,0.1,0C114.3,561.5,114.3,561.5,114.2,561.5z M120.7,365.9
						C120.7,365.8,120.7,365.8,120.7,365.9C120.7,365.8,120.8,365.9,120.7,365.9C120.8,365.9,120.8,365.9,120.7,365.9z M120.9,558.4
						c0,0,0.1-0.1,0.1-0.1c0,0,0.1-0.1,0.1-0.1C121,558.3,121,558.4,120.9,558.4z"/>
				</g>
			</mask>
			<linearGradient id="XMLID_111_" gradientUnits="userSpaceOnUse" x1="74.8992" y1="561.5254" x2="74.8992" y2="365.7943">
				<stop  offset="0" style="stop-color:#FFFFFF"/>
				<stop  offset="0.8529" style="stop-color:#FFFFFF"/>
				<stop  offset="1" style="stop-color:#FFFFFF"/>
			</linearGradient>
			<path id="XMLID_23_" fill="url(#XMLID_111_)" d="M28.7,554C28.7,554,28.7,554,28.7,554C28.7,554,28.7,554,28.7,554
				C28.7,554,28.7,554,28.7,554z M30.7,557.3C30.7,557.3,30.7,557.3,30.7,557.3c0,0,0.1,0.1,0.1,0.1
				C30.7,557.3,30.7,557.3,30.7,557.3z M35.3,560.7c0,0,0.1,0,0.1,0c0,0,0,0,0,0C35.5,560.8,35.4,560.7,35.3,560.7z M114.2,561.5
				C114.2,561.5,114.2,561.5,114.2,561.5c0,0,0.1,0,0.1,0C114.3,561.5,114.3,561.5,114.2,561.5z M120.7,365.9
				C120.7,365.8,120.7,365.8,120.7,365.9C120.7,365.8,120.8,365.9,120.7,365.9C120.8,365.9,120.8,365.9,120.7,365.9z M120.9,558.4
				c0,0,0.1-0.1,0.1-0.1c0,0,0.1-0.1,0.1-0.1C121,558.3,121,558.4,120.9,558.4z"/>
		</g>
		<defs>
			<filter id="Adobe_OpacityMaskFilter_4_" filterUnits="userSpaceOnUse" x="23.7" y="368.8" width="100.9" height="202.1">
				<feFlood  style="flood-color:white;flood-opacity:1" result="back"/>
				<feBlend  in="SourceGraphic" in2="back" mode="normal"/>
			</filter>
		</defs>
		<mask maskUnits="userSpaceOnUse" x="23.7" y="368.8" width="100.9" height="202.1" id="XMLID_112_" display="inline">
			<g id="XMLID_9_" filter="url(#Adobe_OpacityMaskFilter_4_)">
				<defs>
					<filter id="Adobe_OpacityMaskFilter_5_" filterUnits="userSpaceOnUse" x="23.7" y="368.8" width="100.9" height="202.1">
						<feFlood  style="flood-color:white;flood-opacity:1" result="back"/>
						<feBlend  in="SourceGraphic" in2="back" mode="normal"/>
					</filter>
				</defs>
				<mask maskUnits="userSpaceOnUse" x="23.7" y="368.8" width="100.9" height="202.1" id="XMLID_112_">
					<g id="XMLID_10_" filter="url(#Adobe_OpacityMaskFilter_5_)">
					</g>
				</mask>
				<linearGradient id="XMLID_113_" gradientUnits="userSpaceOnUse" x1="74.1047" y1="570.8852" x2="74.1047" y2="368.7862">
					<stop  offset="0.198" style="stop-color:#000000"/>
					<stop  offset="0.4968" style="stop-color:#020202"/>
					<stop  offset="0.6045" style="stop-color:#090909"/>
					<stop  offset="0.6813" style="stop-color:#141414"/>
					<stop  offset="0.7433" style="stop-color:#252525"/>
					<stop  offset="0.7965" style="stop-color:#3B3B3B"/>
					<stop  offset="0.8436" style="stop-color:#575757"/>
					<stop  offset="0.8862" style="stop-color:#777777"/>
					<stop  offset="0.9253" style="stop-color:#9D9D9D"/>
					<stop  offset="0.9618" style="stop-color:#C8C8C8"/>
					<stop  offset="0.9941" style="stop-color:#F6F6F6"/>
					<stop  offset="1" style="stop-color:#FFFFFF"/>
				</linearGradient>
				<path id="XMLID_11_" mask="url(#XMLID_112_)" fill="url(#XMLID_113_)" d="M124.4,415.6c-0.1,0-0.1-0.1-0.2-0.1
					c-0.2,0-0.4,0.2-0.4,0.4v-33.4c0-7.5-6.1-13.6-13.6-13.6h-5.1l-81.4,81.4v107c0,7.5,6.1,13.6,13.6,13.6h72.9
					c7.5,0,13.6-6.1,13.6-13.6v-119c0,0.2,0.2,0.4,0.4,0.4c0.1,0,0.2,0,0.2-0.1c0.1-0.1,0.1-0.2,0.1-0.3v-22.5
					C124.6,415.7,124.5,415.6,124.4,415.6z"/>
			</g>
		</mask>
		<linearGradient id="XMLID_114_" gradientUnits="userSpaceOnUse" x1="74.1047" y1="570.8852" x2="74.1047" y2="368.7862">
			<stop  offset="0.198" style="stop-color:#FFFFFF"/>
			<stop  offset="0.8866" style="stop-color:#FFFFFF"/>
			<stop  offset="1" style="stop-color:#FFFFFF"/>
		</linearGradient>
		<path id="XMLID_12_" display="inline" opacity="0.2" fill="url(#XMLID_114_)" d="M124.4,415.6c-0.1,0-0.1-0.1-0.2-0.1
			c-0.2,0-0.4,0.2-0.4,0.4v-33.4c0-7.5-6.1-13.6-13.6-13.6h-5.1l-81.4,81.4v107c0,7.5,6.1,13.6,13.6,13.6h72.9
			c7.5,0,13.6-6.1,13.6-13.6v-119c0,0.2,0.2,0.4,0.4,0.4c0.1,0,0.2,0,0.2-0.1c0.1-0.1,0.1-0.2,0.1-0.3v-22.5
			C124.6,415.7,124.5,415.6,124.4,415.6z"/>
	</g>
</g>
<g id="Layer_3">
</g>
</svg>
