<svg xmlns="http://www.w3.org/2000/svg" width="207.899" height="171.9" viewBox="0 0 207.899 171.9">
  <g id="Untitled-33" transform="translate(-50 -55.2)">
    <rect id="XMLID_19_" width="196.8" height="161.7" transform="translate(61.1 55.2)" fill="#55ff7c"/>
    <g id="XMLID_20_">
      <g id="XMLID_21_">
        <g id="XMLID_54_">
          <path id="XMLID_55_" d="M245.4,227.1H51.6a1.58,1.58,0,0,1-1.6-1.6V64a1.58,1.58,0,0,1,1.6-1.6H245.4A1.58,1.58,0,0,1,247,64V225.5A1.58,1.58,0,0,1,245.4,227.1ZM53.2,223.9H243.7V65.6H53.2Z" fill="#010101"/>
        </g>
        <g id="XMLID_50_">
          <path id="XMLID_51_" d="M245.4,227.1H159.5a1.6,1.6,0,0,1-1.4-.8l-.6-1.1a1.685,1.685,0,0,1,.4-2.1l12.5-9.9a37.353,37.353,0,0,1-1.9-7.3l-15.8-2.4a1.617,1.617,0,0,1-1.4-1.6v-7.6a1.617,1.617,0,0,1,1.4-1.6l15.8-2.4a49.065,49.065,0,0,1,1.9-7.3l-12.5-9.9a1.685,1.685,0,0,1-.4-2.1l4.4-7.6a1.592,1.592,0,0,1,2-.7l14.8,5.8a44.219,44.219,0,0,1,5.3-5.3l-5.8-14.8a1.63,1.63,0,0,1,.7-2l7.6-4.4a1.685,1.685,0,0,1,2.1.4l9.9,12.5a42.3,42.3,0,0,1,7.2-1.9l2.4-15.8a1.617,1.617,0,0,1,1.6-1.4h8.8a1.617,1.617,0,0,1,1.6,1.4l2.4,15.8a60.175,60.175,0,0,1,7.3,1.9l9.9-12.5a1.685,1.685,0,0,1,2.1-.4l4.5,2.6a1.6,1.6,0,0,1,.8,1.4v9.8a1.268,1.268,0,0,1-.1.6l-2.7,6.8a23.97,23.97,0,0,1,2.3,2.1,1.656,1.656,0,0,1,.5,1.2v58.9A1.75,1.75,0,0,1,245.4,227.1ZM162,223.9h81.7V167.3c-.7-.7-1.6-1.4-2.5-2.2a1.735,1.735,0,0,1-.5-1.8l3-7.6V147l-2.5-1.4-9.8,12.3a1.536,1.536,0,0,1-1.9.5,43.2,43.2,0,0,0-8.9-2.4,1.594,1.594,0,0,1-1.3-1.4L217,139.1h-6l-2.3,15.5a1.706,1.706,0,0,1-1.3,1.4,43.2,43.2,0,0,0-8.9,2.4,1.569,1.569,0,0,1-1.9-.5l-9.8-12.3-5.2,3,5.8,14.6a1.405,1.405,0,0,1-.5,1.8,49.891,49.891,0,0,0-6.5,6.5,1.672,1.672,0,0,1-1.9.5l-14.6-5.7-3,5.2,12.3,9.8a1.566,1.566,0,0,1,.5,1.8,46.9,46.9,0,0,0-2.4,8.9,1.7,1.7,0,0,1-1.4,1.4l-15.5,2.3v4.8l15.5,2.3a1.7,1.7,0,0,1,1.4,1.4,35.62,35.62,0,0,0,2.4,8.9,1.525,1.525,0,0,1-.5,1.8Z" fill="#010101"/>
        </g>
        <g id="XMLID_48_">
          <path id="XMLID_14_" d="M245.4,98.3H51.6a1.6,1.6,0,1,1,0-3.2H245.4a1.6,1.6,0,1,1,0,3.2Z" fill="#010101"/>
        </g>
        <g id="XMLID_44_">
          <path id="XMLID_45_" d="M71.1,87.1A7.1,7.1,0,1,1,78.2,80,7,7,0,0,1,71.1,87.1Zm0-11a3.9,3.9,0,0,0,0,7.8,3.9,3.9,0,0,0,0-7.8Z" fill="#010101"/>
        </g>
        <g id="XMLID_40_">
          <path id="XMLID_41_" d="M95,87.1a7.1,7.1,0,1,1,7.1-7.1A7,7,0,0,1,95,87.1Zm0-11A3.842,3.842,0,0,0,91.1,80a3.9,3.9,0,0,0,7.8,0A3.842,3.842,0,0,0,95,76.1Z" fill="#010101"/>
        </g>
        <g id="XMLID_38_">
          <path id="XMLID_9_" d="M245.4,81.6H137.7a1.6,1.6,0,1,1,0-3.2H245.4a1.6,1.6,0,1,1,0,3.2Z" fill="#010101"/>
        </g>
        <g id="XMLID_34_">
          <path id="XMLID_35_" d="M222.1,123.8H74.9a1.58,1.58,0,0,1-1.6-1.6V112.1a1.58,1.58,0,0,1,1.6-1.6H222.1a1.58,1.58,0,0,1,1.6,1.6v10.1A1.645,1.645,0,0,1,222.1,123.8ZM76.5,120.6H220.4v-6.9H76.5Z" fill="#010101"/>
        </g>
        <g id="XMLID_32_">
          <path id="XMLID_6_" d="M159.3,145h-85a1.6,1.6,0,0,1,0-3.2h85.1a1.58,1.58,0,0,1,1.6,1.6A1.666,1.666,0,0,1,159.3,145Z" fill="#010101"/>
        </g>
        <g id="XMLID_30_">
          <path id="XMLID_5_" d="M105.2,155.1h-31a1.6,1.6,0,0,1,0-3.2h31a1.6,1.6,0,0,1,0,3.2Z" fill="#010101"/>
        </g>
        <g id="XMLID_28_">
          <path id="XMLID_4_" d="M142.4,165.3H74.3a1.6,1.6,0,0,1,0-3.2h68.2a1.58,1.58,0,0,1,1.6,1.6A1.666,1.666,0,0,1,142.4,165.3Z" fill="#010101"/>
        </g>
        <g id="XMLID_26_">
          <path id="XMLID_3_" d="M124.2,175.5H74.3a1.6,1.6,0,0,1,0-3.2h49.9a1.6,1.6,0,0,1,0,3.2Z" fill="#010101"/>
        </g>
        <g id="XMLID_24_">
          <path id="XMLID_2_" d="M142.1,185.7H74.3a1.6,1.6,0,0,1,0-3.2h67.8a1.6,1.6,0,1,1,0,3.2Z" fill="#010101"/>
        </g>
        <g id="XMLID_22_">
          <path id="XMLID_1_" d="M122.6,195.9H74.3a1.6,1.6,0,0,1,0-3.2h48.3a1.6,1.6,0,0,1,0,3.2Z" fill="#010101"/>
        </g>
      </g>
    </g>
  </g>
</svg>
