<svg xmlns="http://www.w3.org/2000/svg" width="205.3" height="159.4" viewBox="0 0 205.3 159.4">
  <g id="Untitled-323" transform="translate(-39.2 -67.8)">
    <path id="XMLID_63_" d="M163.5,219h74a7.02,7.02,0,0,0,7-7V74.8a7.02,7.02,0,0,0-7-7h-74a7.02,7.02,0,0,0-7,7V211.9A7.042,7.042,0,0,0,163.5,219Z" fill="#55ff7c"/>
    <path id="XMLID_64_" d="M201.3,211.7v-74a7.02,7.02,0,0,0-7-7H57.1a7.02,7.02,0,0,0-7,7v74a7.02,7.02,0,0,0,7,7H194.2A7.042,7.042,0,0,0,201.3,211.7Z" fill="#55ff7c"/>
    <g id="XMLID_2_">
      <g id="XMLID_3_">
        <g id="XMLID_60_">
          <path id="XMLID_61_" d="M165.8,227.2H49.3a10.072,10.072,0,0,1-10.1-10.1V149.2a10.072,10.072,0,0,1,10.1-10.1h99a1.6,1.6,0,0,1,0,3.2h-99a6.914,6.914,0,0,0-6.9,6.9v67.9a6.914,6.914,0,0,0,6.9,6.9H165.8a1.58,1.58,0,0,1,1.6,1.6A1.645,1.645,0,0,1,165.8,227.2Z" fill="#010101"/>
        </g>
        <g id="XMLID_56_">
          <path id="XMLID_57_" d="M224.7,227.2H156.8a10.072,10.072,0,0,1-10.1-10.1V86.1A10.072,10.072,0,0,1,156.8,76h67.9a10.072,10.072,0,0,1,10.1,10.1v131A10.2,10.2,0,0,1,224.7,227.2Zm-67.9-148a6.914,6.914,0,0,0-6.9,6.9v131a6.914,6.914,0,0,0,6.9,6.9h67.9a6.914,6.914,0,0,0,6.9-6.9V86.1a6.914,6.914,0,0,0-6.9-6.9H156.8Z" fill="#010101"/>
        </g>
        <g id="XMLID_52_">
          <path id="XMLID_53_" d="M190.7,219a7.4,7.4,0,0,1,0-14.8,7.4,7.4,0,1,1,0,14.8Zm0-11.5a4.15,4.15,0,1,0,4.1,4.2A4.02,4.02,0,0,0,190.7,207.5Z" fill="#010101"/>
        </g>
        <g id="XMLID_48_">
          <path id="XMLID_49_" d="M225.5,198.8H155.9a1.58,1.58,0,0,1-1.6-1.6V97.8a1.58,1.58,0,0,1,1.6-1.6h69.6a1.58,1.58,0,0,1,1.6,1.6v99.4A1.58,1.58,0,0,1,225.5,198.8Zm-68-3.2h66.4V99.4H157.5Z" fill="#010101"/>
        </g>
        <g id="XMLID_44_">
          <path id="XMLID_45_" d="M202.8,90.1h-4.7a1.6,1.6,0,1,1,0-3.2h4.7a1.58,1.58,0,0,1,1.6,1.6A1.645,1.645,0,0,1,202.8,90.1Zm-8,0H178.6a1.6,1.6,0,1,1,0-3.2h16.2a1.58,1.58,0,0,1,1.6,1.6A1.645,1.645,0,0,1,194.8,90.1Z" fill="#010101"/>
        </g>
        <g id="XMLID_40_">
          <path id="XMLID_41_" d="M148.3,219.5H61a1.58,1.58,0,0,1-1.6-1.6V148.3a1.58,1.58,0,0,1,1.6-1.6h87.3a1.58,1.58,0,0,1,1.6,1.6v69.6A1.58,1.58,0,0,1,148.3,219.5Zm-85.7-3.2h84.1V149.9H62.6Z" fill="#010101"/>
        </g>
        <g id="XMLID_36_">
          <path id="XMLID_37_" d="M51.7,196.8a1.58,1.58,0,0,1-1.6-1.6V179a1.6,1.6,0,1,1,3.2,0v16.2A1.58,1.58,0,0,1,51.7,196.8Zm0-19.5a1.58,1.58,0,0,1-1.6-1.6V171a1.6,1.6,0,1,1,3.2,0v4.7A1.58,1.58,0,0,1,51.7,177.3Z" fill="#010101"/>
        </g>
        <g id="XMLID_32_">
          <path id="XMLID_33_" d="M217.3,117h-38a1.6,1.6,0,1,1,0-3.2h38a1.6,1.6,0,1,1,0,3.2Zm-46.5,0h-6.6a1.6,1.6,0,1,1,0-3.2h6.6a1.6,1.6,0,1,1,0,3.2Z" fill="#010101"/>
        </g>
        <g id="XMLID_28_">
          <path id="XMLID_29_" d="M175,121.2a5.8,5.8,0,1,1,5.8-5.8A5.8,5.8,0,0,1,175,121.2Zm0-8.4a2.6,2.6,0,1,0,2.6,2.6A2.582,2.582,0,0,0,175,112.8Z" fill="#010101"/>
        </g>
        <g id="XMLID_24_">
          <path id="XMLID_25_" d="M217.3,134.1H195a1.6,1.6,0,0,1,0-3.2h22.3a1.58,1.58,0,0,1,1.6,1.6A1.645,1.645,0,0,1,217.3,134.1Zm-30.8,0H164.2a1.6,1.6,0,0,1,0-3.2h22.3a1.58,1.58,0,0,1,1.6,1.6A1.645,1.645,0,0,1,186.5,134.1Z" fill="#010101"/>
        </g>
        <g id="XMLID_20_">
          <path id="XMLID_21_" d="M190.7,138.3a5.8,5.8,0,1,1,5.8-5.8A5.8,5.8,0,0,1,190.7,138.3Zm0-8.4a2.6,2.6,0,1,0,2.6,2.6A2.522,2.522,0,0,0,190.7,129.9Z" fill="#010101"/>
        </g>
        <g id="XMLID_16_">
          <path id="XMLID_17_" d="M190.7,191.2a24.9,24.9,0,1,1,24.9-24.9A24.967,24.967,0,0,1,190.7,191.2Zm0-46.5a21.65,21.65,0,1,0,21.7,21.6A21.638,21.638,0,0,0,190.7,144.7Z" fill="#010101"/>
        </g>
        <g id="XMLID_12_">
          <path id="XMLID_13_" d="M190.7,191.2c-7.6,0-13.5-10.9-13.5-24.9,0-13.9,5.9-24.9,13.5-24.9s13.5,10.9,13.5,24.9C204.3,180.3,198.3,191.2,190.7,191.2Zm0-46.5c-5.6,0-10.3,9.9-10.3,21.6s4.7,21.7,10.3,21.7,10.3-9.9,10.3-21.7C201,154.6,196.3,144.7,190.7,144.7Z" fill="#010101"/>
        </g>
        <g id="XMLID_10_">
          <path id="XMLID_11_" d="M214,167.9H167.5a1.6,1.6,0,0,1,0-3.2H214a1.6,1.6,0,0,1,0,3.2Z" fill="#010101"/>
        </g>
        <g id="XMLID_8_">
          <path id="XMLID_9_" d="M190.7,191.2a1.58,1.58,0,0,1-1.6-1.6V143a1.6,1.6,0,0,1,3.2,0v46.5A1.605,1.605,0,0,1,190.7,191.2Z" fill="#010101"/>
        </g>
        <g id="XMLID_6_">
          <path id="XMLID_7_" d="M190.8,157.5a59.464,59.464,0,0,1-19.4-3.3,1.581,1.581,0,0,1,1-3,56.288,56.288,0,0,0,36.7,0,1.581,1.581,0,1,1,1,3A58.88,58.88,0,0,1,190.8,157.5Z" fill="#010101"/>
        </g>
        <g id="XMLID_4_">
          <path id="XMLID_5_" d="M171.9,181.1a1.5,1.5,0,0,1-1.5-1.1,1.566,1.566,0,0,1,1-2,59.661,59.661,0,0,1,38.7,0,1.581,1.581,0,0,1-1,3,56.288,56.288,0,0,0-36.7,0A4.331,4.331,0,0,0,171.9,181.1Z" fill="#010101"/>
        </g>
      </g>
    </g>
  </g>
</svg>
